<?xml version="1.0" encoding="utf-8" standalone="no"?>
<!DOCTYPE svg PUBLIC "-//W3C//DTD SVG 1.1//EN"
  "http://www.w3.org/Graphics/SVG/1.1/DTD/svg11.dtd">
<svg xmlns:xlink="http://www.w3.org/1999/xlink" width="1440pt" height="432pt" viewBox="0 0 1440 432" xmlns="http://www.w3.org/2000/svg" version="1.1">
 <metadata>
  <rdf:RDF xmlns:dc="http://purl.org/dc/elements/1.1/" xmlns:cc="http://creativecommons.org/ns#" xmlns:rdf="http://www.w3.org/1999/02/22-rdf-syntax-ns#">
   <cc:Work>
    <dc:type rdf:resource="http://purl.org/dc/dcmitype/StillImage"/>
    <dc:date>2024-01-26T18:45:14.743475</dc:date>
    <dc:format>image/svg+xml</dc:format>
    <dc:creator>
     <cc:Agent>
      <dc:title>Matplotlib v3.8.2, https://matplotlib.org/</dc:title>
     </cc:Agent>
    </dc:creator>
   </cc:Work>
  </rdf:RDF>
 </metadata>
 <defs>
  <style type="text/css">*{stroke-linejoin: round; stroke-linecap: butt}</style>
 </defs>
 <g id="figure_1">
  <g id="patch_1">
   <path d="M 0 432 
L 1440 432 
L 1440 0 
L 0 0 
z
" style="fill: #ffffff"/>
  </g>
  <g id="axes_1">
   <g id="patch_2">
    <path d="M 52.92 383.94 
L 733.5 383.94 
L 733.5 27.65625 
L 52.92 27.65625 
z
" style="fill: #ffffff"/>
   </g>
   <g id="matplotlib.axis_1">
    <g id="xtick_1">
     <g id="text_1">
      <!-- words_swap -->
      <g style="fill: #262626" transform="translate(107.424531 401.313594) scale(0.11 -0.11)">
       <defs>
        <path id="ArialMT-77" d="M 1034 0 
L 19 3319 
L 600 3319 
L 1128 1403 
L 1325 691 
Q 1338 744 1497 1375 
L 2025 3319 
L 2603 3319 
L 3100 1394 
L 3266 759 
L 3456 1400 
L 4025 3319 
L 4572 3319 
L 3534 0 
L 2950 0 
L 2422 1988 
L 2294 2553 
L 1622 0 
L 1034 0 
z
" transform="scale(0.015625)"/>
        <path id="ArialMT-6f" d="M 213 1659 
Q 213 2581 725 3025 
Q 1153 3394 1769 3394 
Q 2453 3394 2887 2945 
Q 3322 2497 3322 1706 
Q 3322 1066 3130 698 
Q 2938 331 2570 128 
Q 2203 -75 1769 -75 
Q 1072 -75 642 372 
Q 213 819 213 1659 
z
M 791 1659 
Q 791 1022 1069 705 
Q 1347 388 1769 388 
Q 2188 388 2466 706 
Q 2744 1025 2744 1678 
Q 2744 2294 2464 2611 
Q 2184 2928 1769 2928 
Q 1347 2928 1069 2612 
Q 791 2297 791 1659 
z
" transform="scale(0.015625)"/>
        <path id="ArialMT-72" d="M 416 0 
L 416 3319 
L 922 3319 
L 922 2816 
Q 1116 3169 1280 3281 
Q 1444 3394 1641 3394 
Q 1925 3394 2219 3213 
L 2025 2691 
Q 1819 2813 1613 2813 
Q 1428 2813 1281 2702 
Q 1134 2591 1072 2394 
Q 978 2094 978 1738 
L 978 0 
L 416 0 
z
" transform="scale(0.015625)"/>
        <path id="ArialMT-64" d="M 2575 0 
L 2575 419 
Q 2259 -75 1647 -75 
Q 1250 -75 917 144 
Q 584 363 401 755 
Q 219 1147 219 1656 
Q 219 2153 384 2558 
Q 550 2963 881 3178 
Q 1213 3394 1622 3394 
Q 1922 3394 2156 3267 
Q 2391 3141 2538 2938 
L 2538 4581 
L 3097 4581 
L 3097 0 
L 2575 0 
z
M 797 1656 
Q 797 1019 1065 703 
Q 1334 388 1700 388 
Q 2069 388 2326 689 
Q 2584 991 2584 1609 
Q 2584 2291 2321 2609 
Q 2059 2928 1675 2928 
Q 1300 2928 1048 2622 
Q 797 2316 797 1656 
z
" transform="scale(0.015625)"/>
        <path id="ArialMT-73" d="M 197 991 
L 753 1078 
Q 800 744 1014 566 
Q 1228 388 1613 388 
Q 2000 388 2187 545 
Q 2375 703 2375 916 
Q 2375 1106 2209 1216 
Q 2094 1291 1634 1406 
Q 1016 1563 777 1677 
Q 538 1791 414 1992 
Q 291 2194 291 2438 
Q 291 2659 392 2848 
Q 494 3038 669 3163 
Q 800 3259 1026 3326 
Q 1253 3394 1513 3394 
Q 1903 3394 2198 3281 
Q 2494 3169 2634 2976 
Q 2775 2784 2828 2463 
L 2278 2388 
Q 2241 2644 2061 2787 
Q 1881 2931 1553 2931 
Q 1166 2931 1000 2803 
Q 834 2675 834 2503 
Q 834 2394 903 2306 
Q 972 2216 1119 2156 
Q 1203 2125 1616 2013 
Q 2213 1853 2448 1751 
Q 2684 1650 2818 1456 
Q 2953 1263 2953 975 
Q 2953 694 2789 445 
Q 2625 197 2315 61 
Q 2006 -75 1616 -75 
Q 969 -75 630 194 
Q 291 463 197 991 
z
" transform="scale(0.015625)"/>
        <path id="ArialMT-5f" d="M -97 -1272 
L -97 -866 
L 3631 -866 
L 3631 -1272 
L -97 -1272 
z
" transform="scale(0.015625)"/>
        <path id="ArialMT-61" d="M 2588 409 
Q 2275 144 1986 34 
Q 1697 -75 1366 -75 
Q 819 -75 525 192 
Q 231 459 231 875 
Q 231 1119 342 1320 
Q 453 1522 633 1644 
Q 813 1766 1038 1828 
Q 1203 1872 1538 1913 
Q 2219 1994 2541 2106 
Q 2544 2222 2544 2253 
Q 2544 2597 2384 2738 
Q 2169 2928 1744 2928 
Q 1347 2928 1158 2789 
Q 969 2650 878 2297 
L 328 2372 
Q 403 2725 575 2942 
Q 747 3159 1072 3276 
Q 1397 3394 1825 3394 
Q 2250 3394 2515 3294 
Q 2781 3194 2906 3042 
Q 3031 2891 3081 2659 
Q 3109 2516 3109 2141 
L 3109 1391 
Q 3109 606 3145 398 
Q 3181 191 3288 0 
L 2700 0 
Q 2613 175 2588 409 
z
M 2541 1666 
Q 2234 1541 1622 1453 
Q 1275 1403 1131 1340 
Q 988 1278 909 1158 
Q 831 1038 831 891 
Q 831 666 1001 516 
Q 1172 366 1500 366 
Q 1825 366 2078 508 
Q 2331 650 2450 897 
Q 2541 1088 2541 1459 
L 2541 1666 
z
" transform="scale(0.015625)"/>
        <path id="ArialMT-70" d="M 422 -1272 
L 422 3319 
L 934 3319 
L 934 2888 
Q 1116 3141 1344 3267 
Q 1572 3394 1897 3394 
Q 2322 3394 2647 3175 
Q 2972 2956 3137 2557 
Q 3303 2159 3303 1684 
Q 3303 1175 3120 767 
Q 2938 359 2589 142 
Q 2241 -75 1856 -75 
Q 1575 -75 1351 44 
Q 1128 163 984 344 
L 984 -1272 
L 422 -1272 
z
M 931 1641 
Q 931 1000 1190 694 
Q 1450 388 1819 388 
Q 2194 388 2461 705 
Q 2728 1022 2728 1688 
Q 2728 2322 2467 2637 
Q 2206 2953 1844 2953 
Q 1484 2953 1207 2617 
Q 931 2281 931 1641 
z
" transform="scale(0.015625)"/>
       </defs>
       <use xlink:href="#ArialMT-77"/>
       <use xlink:href="#ArialMT-6f" x="72.216797"/>
       <use xlink:href="#ArialMT-72" x="127.832031"/>
       <use xlink:href="#ArialMT-64" x="161.132812"/>
       <use xlink:href="#ArialMT-73" x="216.748047"/>
       <use xlink:href="#ArialMT-5f" x="266.748047"/>
       <use xlink:href="#ArialMT-73" x="322.363281"/>
       <use xlink:href="#ArialMT-77" x="372.363281"/>
       <use xlink:href="#ArialMT-61" x="444.580078"/>
       <use xlink:href="#ArialMT-70" x="500.195312"/>
      </g>
     </g>
    </g>
    <g id="xtick_2">
     <g id="text_2">
      <!-- words_delete -->
      <g style="fill: #262626" transform="translate(275.424531 401.313594) scale(0.11 -0.11)">
       <defs>
        <path id="ArialMT-65" d="M 2694 1069 
L 3275 997 
Q 3138 488 2766 206 
Q 2394 -75 1816 -75 
Q 1088 -75 661 373 
Q 234 822 234 1631 
Q 234 2469 665 2931 
Q 1097 3394 1784 3394 
Q 2450 3394 2872 2941 
Q 3294 2488 3294 1666 
Q 3294 1616 3291 1516 
L 816 1516 
Q 847 969 1125 678 
Q 1403 388 1819 388 
Q 2128 388 2347 550 
Q 2566 713 2694 1069 
z
M 847 1978 
L 2700 1978 
Q 2663 2397 2488 2606 
Q 2219 2931 1791 2931 
Q 1403 2931 1139 2672 
Q 875 2413 847 1978 
z
" transform="scale(0.015625)"/>
        <path id="ArialMT-6c" d="M 409 0 
L 409 4581 
L 972 4581 
L 972 0 
L 409 0 
z
" transform="scale(0.015625)"/>
        <path id="ArialMT-74" d="M 1650 503 
L 1731 6 
Q 1494 -44 1306 -44 
Q 1000 -44 831 53 
Q 663 150 594 308 
Q 525 466 525 972 
L 525 2881 
L 113 2881 
L 113 3319 
L 525 3319 
L 525 4141 
L 1084 4478 
L 1084 3319 
L 1650 3319 
L 1650 2881 
L 1084 2881 
L 1084 941 
Q 1084 700 1114 631 
Q 1144 563 1211 522 
Q 1278 481 1403 481 
Q 1497 481 1650 503 
z
" transform="scale(0.015625)"/>
       </defs>
       <use xlink:href="#ArialMT-77"/>
       <use xlink:href="#ArialMT-6f" x="72.216797"/>
       <use xlink:href="#ArialMT-72" x="127.832031"/>
       <use xlink:href="#ArialMT-64" x="161.132812"/>
       <use xlink:href="#ArialMT-73" x="216.748047"/>
       <use xlink:href="#ArialMT-5f" x="266.748047"/>
       <use xlink:href="#ArialMT-64" x="322.363281"/>
       <use xlink:href="#ArialMT-65" x="377.978516"/>
       <use xlink:href="#ArialMT-6c" x="433.59375"/>
       <use xlink:href="#ArialMT-65" x="455.810547"/>
       <use xlink:href="#ArialMT-74" x="511.425781"/>
       <use xlink:href="#ArialMT-65" x="539.208984"/>
      </g>
     </g>
    </g>
    <g id="xtick_3">
     <g id="text_3">
      <!-- chars_swap -->
      <g style="fill: #262626" transform="translate(448.936563 401.313594) scale(0.11 -0.11)">
       <defs>
        <path id="ArialMT-63" d="M 2588 1216 
L 3141 1144 
Q 3050 572 2676 248 
Q 2303 -75 1759 -75 
Q 1078 -75 664 370 
Q 250 816 250 1647 
Q 250 2184 428 2587 
Q 606 2991 970 3192 
Q 1334 3394 1763 3394 
Q 2303 3394 2647 3120 
Q 2991 2847 3088 2344 
L 2541 2259 
Q 2463 2594 2264 2762 
Q 2066 2931 1784 2931 
Q 1359 2931 1093 2626 
Q 828 2322 828 1663 
Q 828 994 1084 691 
Q 1341 388 1753 388 
Q 2084 388 2306 591 
Q 2528 794 2588 1216 
z
" transform="scale(0.015625)"/>
        <path id="ArialMT-68" d="M 422 0 
L 422 4581 
L 984 4581 
L 984 2938 
Q 1378 3394 1978 3394 
Q 2347 3394 2619 3248 
Q 2891 3103 3008 2847 
Q 3125 2591 3125 2103 
L 3125 0 
L 2563 0 
L 2563 2103 
Q 2563 2525 2380 2717 
Q 2197 2909 1863 2909 
Q 1613 2909 1392 2779 
Q 1172 2650 1078 2428 
Q 984 2206 984 1816 
L 984 0 
L 422 0 
z
" transform="scale(0.015625)"/>
       </defs>
       <use xlink:href="#ArialMT-63"/>
       <use xlink:href="#ArialMT-68" x="50"/>
       <use xlink:href="#ArialMT-61" x="105.615234"/>
       <use xlink:href="#ArialMT-72" x="161.230469"/>
       <use xlink:href="#ArialMT-73" x="194.53125"/>
       <use xlink:href="#ArialMT-5f" x="244.53125"/>
       <use xlink:href="#ArialMT-73" x="300.146484"/>
       <use xlink:href="#ArialMT-77" x="350.146484"/>
       <use xlink:href="#ArialMT-61" x="422.363281"/>
       <use xlink:href="#ArialMT-70" x="477.978516"/>
      </g>
     </g>
    </g>
    <g id="xtick_4">
     <g id="text_4">
      <!-- chars_delete -->
      <g style="fill: #262626" transform="translate(616.936563 401.313594) scale(0.11 -0.11)">
       <use xlink:href="#ArialMT-63"/>
       <use xlink:href="#ArialMT-68" x="50"/>
       <use xlink:href="#ArialMT-61" x="105.615234"/>
       <use xlink:href="#ArialMT-72" x="161.230469"/>
       <use xlink:href="#ArialMT-73" x="194.53125"/>
       <use xlink:href="#ArialMT-5f" x="244.53125"/>
       <use xlink:href="#ArialMT-64" x="300.146484"/>
       <use xlink:href="#ArialMT-65" x="355.761719"/>
       <use xlink:href="#ArialMT-6c" x="411.376953"/>
       <use xlink:href="#ArialMT-65" x="433.59375"/>
       <use xlink:href="#ArialMT-74" x="489.208984"/>
       <use xlink:href="#ArialMT-65" x="516.992188"/>
      </g>
     </g>
    </g>
    <g id="text_5">
     <!-- Method -->
     <g style="fill: #262626" transform="translate(373.199063 416.089219) scale(0.12 -0.12)">
      <defs>
       <path id="ArialMT-4d" d="M 475 0 
L 475 4581 
L 1388 4581 
L 2472 1338 
Q 2622 884 2691 659 
Q 2769 909 2934 1394 
L 4031 4581 
L 4847 4581 
L 4847 0 
L 4263 0 
L 4263 3834 
L 2931 0 
L 2384 0 
L 1059 3900 
L 1059 0 
L 475 0 
z
" transform="scale(0.015625)"/>
      </defs>
      <use xlink:href="#ArialMT-4d"/>
      <use xlink:href="#ArialMT-65" x="83.300781"/>
      <use xlink:href="#ArialMT-74" x="138.916016"/>
      <use xlink:href="#ArialMT-68" x="166.699219"/>
      <use xlink:href="#ArialMT-6f" x="222.314453"/>
      <use xlink:href="#ArialMT-64" x="277.929688"/>
     </g>
    </g>
   </g>
   <g id="matplotlib.axis_2">
    <g id="ytick_1">
     <g id="line2d_1">
      <path d="M 52.92 383.94 
L 733.5 383.94 
" clip-path="url(#peffee8295c)" style="fill: none; stroke: #cccccc; stroke-linecap: round"/>
     </g>
     <g id="text_6">
      <!-- 0.0 -->
      <g style="fill: #262626" transform="translate(28.13 387.876797) scale(0.11 -0.11)">
       <defs>
        <path id="ArialMT-30" d="M 266 2259 
Q 266 3072 433 3567 
Q 600 4063 929 4331 
Q 1259 4600 1759 4600 
Q 2128 4600 2406 4451 
Q 2684 4303 2865 4023 
Q 3047 3744 3150 3342 
Q 3253 2941 3253 2259 
Q 3253 1453 3087 958 
Q 2922 463 2592 192 
Q 2263 -78 1759 -78 
Q 1097 -78 719 397 
Q 266 969 266 2259 
z
M 844 2259 
Q 844 1131 1108 757 
Q 1372 384 1759 384 
Q 2147 384 2411 759 
Q 2675 1134 2675 2259 
Q 2675 3391 2411 3762 
Q 2147 4134 1753 4134 
Q 1366 4134 1134 3806 
Q 844 3388 844 2259 
z
" transform="scale(0.015625)"/>
        <path id="ArialMT-2e" d="M 581 0 
L 581 641 
L 1222 641 
L 1222 0 
L 581 0 
z
" transform="scale(0.015625)"/>
       </defs>
       <use xlink:href="#ArialMT-30"/>
       <use xlink:href="#ArialMT-2e" x="55.615234"/>
       <use xlink:href="#ArialMT-30" x="83.398438"/>
      </g>
     </g>
    </g>
    <g id="ytick_2">
     <g id="line2d_2">
      <path d="M 52.92 329.928651 
L 733.5 329.928651 
" clip-path="url(#peffee8295c)" style="fill: none; stroke: #cccccc; stroke-linecap: round"/>
     </g>
     <g id="text_7">
      <!-- 0.5 -->
      <g style="fill: #262626" transform="translate(28.13 333.865447) scale(0.11 -0.11)">
       <defs>
        <path id="ArialMT-35" d="M 266 1200 
L 856 1250 
Q 922 819 1161 601 
Q 1400 384 1738 384 
Q 2144 384 2425 690 
Q 2706 997 2706 1503 
Q 2706 1984 2436 2262 
Q 2166 2541 1728 2541 
Q 1456 2541 1237 2417 
Q 1019 2294 894 2097 
L 366 2166 
L 809 4519 
L 3088 4519 
L 3088 3981 
L 1259 3981 
L 1013 2750 
Q 1425 3038 1878 3038 
Q 2478 3038 2890 2622 
Q 3303 2206 3303 1553 
Q 3303 931 2941 478 
Q 2500 -78 1738 -78 
Q 1113 -78 717 272 
Q 322 622 266 1200 
z
" transform="scale(0.015625)"/>
       </defs>
       <use xlink:href="#ArialMT-30"/>
       <use xlink:href="#ArialMT-2e" x="55.615234"/>
       <use xlink:href="#ArialMT-35" x="83.398438"/>
      </g>
     </g>
    </g>
    <g id="ytick_3">
     <g id="line2d_3">
      <path d="M 52.92 275.917301 
L 733.5 275.917301 
" clip-path="url(#peffee8295c)" style="fill: none; stroke: #cccccc; stroke-linecap: round"/>
     </g>
     <g id="text_8">
      <!-- 1.0 -->
      <g style="fill: #262626" transform="translate(28.13 279.854098) scale(0.11 -0.11)">
       <defs>
        <path id="ArialMT-31" d="M 2384 0 
L 1822 0 
L 1822 3584 
Q 1619 3391 1289 3197 
Q 959 3003 697 2906 
L 697 3450 
Q 1169 3672 1522 3987 
Q 1875 4303 2022 4600 
L 2384 4600 
L 2384 0 
z
" transform="scale(0.015625)"/>
       </defs>
       <use xlink:href="#ArialMT-31"/>
       <use xlink:href="#ArialMT-2e" x="55.615234"/>
       <use xlink:href="#ArialMT-30" x="83.398438"/>
      </g>
     </g>
    </g>
    <g id="ytick_4">
     <g id="line2d_4">
      <path d="M 52.92 221.905952 
L 733.5 221.905952 
" clip-path="url(#peffee8295c)" style="fill: none; stroke: #cccccc; stroke-linecap: round"/>
     </g>
     <g id="text_9">
      <!-- 1.5 -->
      <g style="fill: #262626" transform="translate(28.13 225.842749) scale(0.11 -0.11)">
       <use xlink:href="#ArialMT-31"/>
       <use xlink:href="#ArialMT-2e" x="55.615234"/>
       <use xlink:href="#ArialMT-35" x="83.398438"/>
      </g>
     </g>
    </g>
    <g id="ytick_5">
     <g id="line2d_5">
      <path d="M 52.92 167.894602 
L 733.5 167.894602 
" clip-path="url(#peffee8295c)" style="fill: none; stroke: #cccccc; stroke-linecap: round"/>
     </g>
     <g id="text_10">
      <!-- 2.0 -->
      <g style="fill: #262626" transform="translate(28.13 171.831399) scale(0.11 -0.11)">
       <defs>
        <path id="ArialMT-32" d="M 3222 541 
L 3222 0 
L 194 0 
Q 188 203 259 391 
Q 375 700 629 1000 
Q 884 1300 1366 1694 
Q 2113 2306 2375 2664 
Q 2638 3022 2638 3341 
Q 2638 3675 2398 3904 
Q 2159 4134 1775 4134 
Q 1369 4134 1125 3890 
Q 881 3647 878 3216 
L 300 3275 
Q 359 3922 746 4261 
Q 1134 4600 1788 4600 
Q 2447 4600 2831 4234 
Q 3216 3869 3216 3328 
Q 3216 3053 3103 2787 
Q 2991 2522 2730 2228 
Q 2469 1934 1863 1422 
Q 1356 997 1212 845 
Q 1069 694 975 541 
L 3222 541 
z
" transform="scale(0.015625)"/>
       </defs>
       <use xlink:href="#ArialMT-32"/>
       <use xlink:href="#ArialMT-2e" x="55.615234"/>
       <use xlink:href="#ArialMT-30" x="83.398438"/>
      </g>
     </g>
    </g>
    <g id="ytick_6">
     <g id="line2d_6">
      <path d="M 52.92 113.883253 
L 733.5 113.883253 
" clip-path="url(#peffee8295c)" style="fill: none; stroke: #cccccc; stroke-linecap: round"/>
     </g>
     <g id="text_11">
      <!-- 2.5 -->
      <g style="fill: #262626" transform="translate(28.13 117.82005) scale(0.11 -0.11)">
       <use xlink:href="#ArialMT-32"/>
       <use xlink:href="#ArialMT-2e" x="55.615234"/>
       <use xlink:href="#ArialMT-35" x="83.398438"/>
      </g>
     </g>
    </g>
    <g id="ytick_7">
     <g id="line2d_7">
      <path d="M 52.92 59.871904 
L 733.5 59.871904 
" clip-path="url(#peffee8295c)" style="fill: none; stroke: #cccccc; stroke-linecap: round"/>
     </g>
     <g id="text_12">
      <!-- 3.0 -->
      <g style="fill: #262626" transform="translate(28.13 63.8087) scale(0.11 -0.11)">
       <defs>
        <path id="ArialMT-33" d="M 269 1209 
L 831 1284 
Q 928 806 1161 595 
Q 1394 384 1728 384 
Q 2125 384 2398 659 
Q 2672 934 2672 1341 
Q 2672 1728 2419 1979 
Q 2166 2231 1775 2231 
Q 1616 2231 1378 2169 
L 1441 2663 
Q 1497 2656 1531 2656 
Q 1891 2656 2178 2843 
Q 2466 3031 2466 3422 
Q 2466 3731 2256 3934 
Q 2047 4138 1716 4138 
Q 1388 4138 1169 3931 
Q 950 3725 888 3313 
L 325 3413 
Q 428 3978 793 4289 
Q 1159 4600 1703 4600 
Q 2078 4600 2393 4439 
Q 2709 4278 2876 4000 
Q 3044 3722 3044 3409 
Q 3044 3113 2884 2869 
Q 2725 2625 2413 2481 
Q 2819 2388 3044 2092 
Q 3269 1797 3269 1353 
Q 3269 753 2831 336 
Q 2394 -81 1725 -81 
Q 1122 -81 723 278 
Q 325 638 269 1209 
z
" transform="scale(0.015625)"/>
       </defs>
       <use xlink:href="#ArialMT-33"/>
       <use xlink:href="#ArialMT-2e" x="55.615234"/>
       <use xlink:href="#ArialMT-30" x="83.398438"/>
      </g>
     </g>
    </g>
    <g id="text_13">
     <!-- Average Time (s) -->
     <g style="fill: #262626" transform="translate(21.604375 251.370938) rotate(-90) scale(0.12 -0.12)">
      <defs>
       <path id="ArialMT-41" d="M -9 0 
L 1750 4581 
L 2403 4581 
L 4278 0 
L 3588 0 
L 3053 1388 
L 1138 1388 
L 634 0 
L -9 0 
z
M 1313 1881 
L 2866 1881 
L 2388 3150 
Q 2169 3728 2063 4100 
Q 1975 3659 1816 3225 
L 1313 1881 
z
" transform="scale(0.015625)"/>
       <path id="ArialMT-76" d="M 1344 0 
L 81 3319 
L 675 3319 
L 1388 1331 
Q 1503 1009 1600 663 
Q 1675 925 1809 1294 
L 2547 3319 
L 3125 3319 
L 1869 0 
L 1344 0 
z
" transform="scale(0.015625)"/>
       <path id="ArialMT-67" d="M 319 -275 
L 866 -356 
Q 900 -609 1056 -725 
Q 1266 -881 1628 -881 
Q 2019 -881 2231 -725 
Q 2444 -569 2519 -288 
Q 2563 -116 2559 434 
Q 2191 0 1641 0 
Q 956 0 581 494 
Q 206 988 206 1678 
Q 206 2153 378 2554 
Q 550 2956 876 3175 
Q 1203 3394 1644 3394 
Q 2231 3394 2613 2919 
L 2613 3319 
L 3131 3319 
L 3131 450 
Q 3131 -325 2973 -648 
Q 2816 -972 2473 -1159 
Q 2131 -1347 1631 -1347 
Q 1038 -1347 672 -1080 
Q 306 -813 319 -275 
z
M 784 1719 
Q 784 1066 1043 766 
Q 1303 466 1694 466 
Q 2081 466 2343 764 
Q 2606 1063 2606 1700 
Q 2606 2309 2336 2618 
Q 2066 2928 1684 2928 
Q 1309 2928 1046 2623 
Q 784 2319 784 1719 
z
" transform="scale(0.015625)"/>
       <path id="ArialMT-20" transform="scale(0.015625)"/>
       <path id="ArialMT-54" d="M 1659 0 
L 1659 4041 
L 150 4041 
L 150 4581 
L 3781 4581 
L 3781 4041 
L 2266 4041 
L 2266 0 
L 1659 0 
z
" transform="scale(0.015625)"/>
       <path id="ArialMT-69" d="M 425 3934 
L 425 4581 
L 988 4581 
L 988 3934 
L 425 3934 
z
M 425 0 
L 425 3319 
L 988 3319 
L 988 0 
L 425 0 
z
" transform="scale(0.015625)"/>
       <path id="ArialMT-6d" d="M 422 0 
L 422 3319 
L 925 3319 
L 925 2853 
Q 1081 3097 1340 3245 
Q 1600 3394 1931 3394 
Q 2300 3394 2536 3241 
Q 2772 3088 2869 2813 
Q 3263 3394 3894 3394 
Q 4388 3394 4653 3120 
Q 4919 2847 4919 2278 
L 4919 0 
L 4359 0 
L 4359 2091 
Q 4359 2428 4304 2576 
Q 4250 2725 4106 2815 
Q 3963 2906 3769 2906 
Q 3419 2906 3187 2673 
Q 2956 2441 2956 1928 
L 2956 0 
L 2394 0 
L 2394 2156 
Q 2394 2531 2256 2718 
Q 2119 2906 1806 2906 
Q 1569 2906 1367 2781 
Q 1166 2656 1075 2415 
Q 984 2175 984 1722 
L 984 0 
L 422 0 
z
" transform="scale(0.015625)"/>
       <path id="ArialMT-28" d="M 1497 -1347 
Q 1031 -759 709 28 
Q 388 816 388 1659 
Q 388 2403 628 3084 
Q 909 3875 1497 4659 
L 1900 4659 
Q 1522 4009 1400 3731 
Q 1209 3300 1100 2831 
Q 966 2247 966 1656 
Q 966 153 1900 -1347 
L 1497 -1347 
z
" transform="scale(0.015625)"/>
       <path id="ArialMT-29" d="M 791 -1347 
L 388 -1347 
Q 1322 153 1322 1656 
Q 1322 2244 1188 2822 
Q 1081 3291 891 3722 
Q 769 4003 388 4659 
L 791 4659 
Q 1378 3875 1659 3084 
Q 1900 2403 1900 1659 
Q 1900 816 1576 28 
Q 1253 -759 791 -1347 
z
" transform="scale(0.015625)"/>
      </defs>
      <use xlink:href="#ArialMT-41"/>
      <use xlink:href="#ArialMT-76" x="64.949219"/>
      <use xlink:href="#ArialMT-65" x="114.949219"/>
      <use xlink:href="#ArialMT-72" x="170.564453"/>
      <use xlink:href="#ArialMT-61" x="203.865234"/>
      <use xlink:href="#ArialMT-67" x="259.480469"/>
      <use xlink:href="#ArialMT-65" x="315.095703"/>
      <use xlink:href="#ArialMT-20" x="370.710938"/>
      <use xlink:href="#ArialMT-54" x="396.744141"/>
      <use xlink:href="#ArialMT-69" x="454.078125"/>
      <use xlink:href="#ArialMT-6d" x="476.294922"/>
      <use xlink:href="#ArialMT-65" x="559.595703"/>
      <use xlink:href="#ArialMT-20" x="615.210938"/>
      <use xlink:href="#ArialMT-28" x="642.994141"/>
      <use xlink:href="#ArialMT-73" x="676.294922"/>
      <use xlink:href="#ArialMT-29" x="726.294922"/>
     </g>
    </g>
   </g>
   <g id="patch_3">
    <path d="M 69.9345 383.94 
L 115.3065 383.94 
L 115.3065 371.771948 
L 69.9345 371.771948 
z
" clip-path="url(#peffee8295c)" style="fill: #5875a4; stroke: #ffffff; stroke-linejoin: miter"/>
   </g>
   <g id="patch_4">
    <path d="M 240.0795 383.94 
L 285.4515 383.94 
L 285.4515 372.080535 
L 240.0795 372.080535 
z
" clip-path="url(#peffee8295c)" style="fill: #5875a4; stroke: #ffffff; stroke-linejoin: miter"/>
   </g>
   <g id="patch_5">
    <path d="M 410.2245 383.94 
L 455.5965 383.94 
L 455.5965 368.783499 
L 410.2245 368.783499 
z
" clip-path="url(#peffee8295c)" style="fill: #5875a4; stroke: #ffffff; stroke-linejoin: miter"/>
   </g>
   <g id="patch_6">
    <path d="M 580.3695 383.94 
L 625.7415 383.94 
L 625.7415 369.146287 
L 580.3695 369.146287 
z
" clip-path="url(#peffee8295c)" style="fill: #5875a4; stroke: #ffffff; stroke-linejoin: miter"/>
   </g>
   <g id="patch_7">
    <path d="M 115.3065 383.94 
L 160.6785 383.94 
L 160.6785 366.414049 
L 115.3065 366.414049 
z
" clip-path="url(#peffee8295c)" style="fill: #cc8963; stroke: #ffffff; stroke-linejoin: miter"/>
   </g>
   <g id="patch_8">
    <path d="M 285.4515 383.94 
L 330.8235 383.94 
L 330.8235 366.956983 
L 285.4515 366.956983 
z
" clip-path="url(#peffee8295c)" style="fill: #cc8963; stroke: #ffffff; stroke-linejoin: miter"/>
   </g>
   <g id="patch_9">
    <path d="M 455.5965 383.94 
L 500.9685 383.94 
L 500.9685 346.988145 
L 455.5965 346.988145 
z
" clip-path="url(#peffee8295c)" style="fill: #cc8963; stroke: #ffffff; stroke-linejoin: miter"/>
   </g>
   <g id="patch_10">
    <path d="M 625.7415 383.94 
L 671.1135 383.94 
L 671.1135 361.176123 
L 625.7415 361.176123 
z
" clip-path="url(#peffee8295c)" style="fill: #cc8963; stroke: #ffffff; stroke-linejoin: miter"/>
   </g>
   <g id="patch_11">
    <path d="M 160.6785 383.94 
L 206.0505 383.94 
L 206.0505 169.527316 
L 160.6785 169.527316 
z
" clip-path="url(#peffee8295c)" style="fill: #5f9e6e; stroke: #ffffff; stroke-linejoin: miter"/>
   </g>
   <g id="patch_12">
    <path d="M 330.8235 383.94 
L 376.1955 383.94 
L 376.1955 211.959493 
L 330.8235 211.959493 
z
" clip-path="url(#peffee8295c)" style="fill: #5f9e6e; stroke: #ffffff; stroke-linejoin: miter"/>
   </g>
   <g id="patch_13">
    <path d="M 500.9685 383.94 
L 546.3405 383.94 
L 546.3405 55.59402 
L 500.9685 55.59402 
z
" clip-path="url(#peffee8295c)" style="fill: #5f9e6e; stroke: #ffffff; stroke-linejoin: miter"/>
   </g>
   <g id="patch_14">
    <path d="M 671.1135 383.94 
L 716.4855 383.94 
L 716.4855 151.129089 
L 671.1135 151.129089 
z
" clip-path="url(#peffee8295c)" style="fill: #5f9e6e; stroke: #ffffff; stroke-linejoin: miter"/>
   </g>
   <g id="patch_15">
    <path d="M 137.9925 383.94 
L 137.9925 383.94 
L 137.9925 383.94 
L 137.9925 383.94 
z
" clip-path="url(#peffee8295c)" style="fill: #5875a4; stroke: #ffffff; stroke-linejoin: miter"/>
   </g>
   <g id="patch_16">
    <path d="M 137.9925 383.94 
L 137.9925 383.94 
L 137.9925 383.94 
L 137.9925 383.94 
z
" clip-path="url(#peffee8295c)" style="fill: #cc8963; stroke: #ffffff; stroke-linejoin: miter"/>
   </g>
   <g id="patch_17">
    <path d="M 137.9925 383.94 
L 137.9925 383.94 
L 137.9925 383.94 
L 137.9925 383.94 
z
" clip-path="url(#peffee8295c)" style="fill: #5f9e6e; stroke: #ffffff; stroke-linejoin: miter"/>
   </g>
   <g id="line2d_8">
    <path d="M 92.6205 371.996864 
L 92.6205 371.548215 
" clip-path="url(#peffee8295c)" style="fill: none; stroke: #424242; stroke-width: 2.25; stroke-linecap: round"/>
   </g>
   <g id="line2d_9">
    <path d="M 262.7655 372.30266 
L 262.7655 371.935935 
" clip-path="url(#peffee8295c)" style="fill: none; stroke: #424242; stroke-width: 2.25; stroke-linecap: round"/>
   </g>
   <g id="line2d_10">
    <path d="M 432.9105 368.864486 
L 432.9105 368.682295 
" clip-path="url(#peffee8295c)" style="fill: none; stroke: #424242; stroke-width: 2.25; stroke-linecap: round"/>
   </g>
   <g id="line2d_11">
    <path d="M 603.0555 369.466025 
L 603.0555 368.822916 
" clip-path="url(#peffee8295c)" style="fill: none; stroke: #424242; stroke-width: 2.25; stroke-linecap: round"/>
   </g>
   <g id="line2d_12">
    <path d="M 137.9925 366.857499 
L 137.9925 365.791352 
" clip-path="url(#peffee8295c)" style="fill: none; stroke: #424242; stroke-width: 2.25; stroke-linecap: round"/>
   </g>
   <g id="line2d_13">
    <path d="M 308.1375 369.108815 
L 308.1375 363.097962 
" clip-path="url(#peffee8295c)" style="fill: none; stroke: #424242; stroke-width: 2.25; stroke-linecap: round"/>
   </g>
   <g id="line2d_14">
    <path d="M 478.2825 347.40227 
L 478.2825 346.555935 
" clip-path="url(#peffee8295c)" style="fill: none; stroke: #424242; stroke-width: 2.25; stroke-linecap: round"/>
   </g>
   <g id="line2d_15">
    <path d="M 648.4275 361.513077 
L 648.4275 360.865578 
" clip-path="url(#peffee8295c)" style="fill: none; stroke: #424242; stroke-width: 2.25; stroke-linecap: round"/>
   </g>
   <g id="line2d_16">
    <path d="M 183.3645 172.058426 
L 183.3645 166.286556 
" clip-path="url(#peffee8295c)" style="fill: none; stroke: #424242; stroke-width: 2.25; stroke-linecap: round"/>
   </g>
   <g id="line2d_17">
    <path d="M 353.5095 212.661067 
L 353.5095 211.293801 
" clip-path="url(#peffee8295c)" style="fill: none; stroke: #424242; stroke-width: 2.25; stroke-linecap: round"/>
   </g>
   <g id="line2d_18">
    <path d="M 523.6545 58.269928 
L 523.6545 52.534689 
" clip-path="url(#peffee8295c)" style="fill: none; stroke: #424242; stroke-width: 2.25; stroke-linecap: round"/>
   </g>
   <g id="line2d_19">
    <path d="M 693.7995 152.474808 
L 693.7995 149.349925 
" clip-path="url(#peffee8295c)" style="fill: none; stroke: #424242; stroke-width: 2.25; stroke-linecap: round"/>
   </g>
   <g id="patch_18">
    <path d="M 52.92 383.94 
L 52.92 27.65625 
" style="fill: none; stroke: #cccccc; stroke-width: 1.25; stroke-linejoin: miter; stroke-linecap: square"/>
   </g>
   <g id="patch_19">
    <path d="M 733.5 383.94 
L 733.5 27.65625 
" style="fill: none; stroke: #cccccc; stroke-width: 1.25; stroke-linejoin: miter; stroke-linecap: square"/>
   </g>
   <g id="patch_20">
    <path d="M 52.92 383.94 
L 733.5 383.94 
" style="fill: none; stroke: #cccccc; stroke-width: 1.25; stroke-linejoin: miter; stroke-linecap: square"/>
   </g>
   <g id="patch_21">
    <path d="M 52.92 27.65625 
L 733.5 27.65625 
" style="fill: none; stroke: #cccccc; stroke-width: 1.25; stroke-linejoin: miter; stroke-linecap: square"/>
   </g>
   <g id="text_14">
    <!-- 12.3k samples, average by 10 runs -->
    <g style="fill: #808080" transform="translate(571.061388 24.155237) scale(0.1 -0.1)">
     <defs>
      <path id="ArialMT-6b" d="M 425 0 
L 425 4581 
L 988 4581 
L 988 1969 
L 2319 3319 
L 3047 3319 
L 1778 2088 
L 3175 0 
L 2481 0 
L 1384 1697 
L 988 1316 
L 988 0 
L 425 0 
z
" transform="scale(0.015625)"/>
      <path id="ArialMT-2c" d="M 569 0 
L 569 641 
L 1209 641 
L 1209 0 
Q 1209 -353 1084 -570 
Q 959 -788 688 -906 
L 531 -666 
Q 709 -588 793 -436 
Q 878 -284 888 0 
L 569 0 
z
" transform="scale(0.015625)"/>
      <path id="ArialMT-62" d="M 941 0 
L 419 0 
L 419 4581 
L 981 4581 
L 981 2947 
Q 1338 3394 1891 3394 
Q 2197 3394 2470 3270 
Q 2744 3147 2920 2923 
Q 3097 2700 3197 2384 
Q 3297 2069 3297 1709 
Q 3297 856 2875 390 
Q 2453 -75 1863 -75 
Q 1275 -75 941 416 
L 941 0 
z
M 934 1684 
Q 934 1088 1097 822 
Q 1363 388 1816 388 
Q 2184 388 2453 708 
Q 2722 1028 2722 1663 
Q 2722 2313 2464 2622 
Q 2206 2931 1841 2931 
Q 1472 2931 1203 2611 
Q 934 2291 934 1684 
z
" transform="scale(0.015625)"/>
      <path id="ArialMT-79" d="M 397 -1278 
L 334 -750 
Q 519 -800 656 -800 
Q 844 -800 956 -737 
Q 1069 -675 1141 -563 
Q 1194 -478 1313 -144 
Q 1328 -97 1363 -6 
L 103 3319 
L 709 3319 
L 1400 1397 
Q 1534 1031 1641 628 
Q 1738 1016 1872 1384 
L 2581 3319 
L 3144 3319 
L 1881 -56 
Q 1678 -603 1566 -809 
Q 1416 -1088 1222 -1217 
Q 1028 -1347 759 -1347 
Q 597 -1347 397 -1278 
z
" transform="scale(0.015625)"/>
      <path id="ArialMT-75" d="M 2597 0 
L 2597 488 
Q 2209 -75 1544 -75 
Q 1250 -75 995 37 
Q 741 150 617 320 
Q 494 491 444 738 
Q 409 903 409 1263 
L 409 3319 
L 972 3319 
L 972 1478 
Q 972 1038 1006 884 
Q 1059 663 1231 536 
Q 1403 409 1656 409 
Q 1909 409 2131 539 
Q 2353 669 2445 892 
Q 2538 1116 2538 1541 
L 2538 3319 
L 3100 3319 
L 3100 0 
L 2597 0 
z
" transform="scale(0.015625)"/>
      <path id="ArialMT-6e" d="M 422 0 
L 422 3319 
L 928 3319 
L 928 2847 
Q 1294 3394 1984 3394 
Q 2284 3394 2536 3286 
Q 2788 3178 2913 3003 
Q 3038 2828 3088 2588 
Q 3119 2431 3119 2041 
L 3119 0 
L 2556 0 
L 2556 2019 
Q 2556 2363 2490 2533 
Q 2425 2703 2258 2804 
Q 2091 2906 1866 2906 
Q 1506 2906 1245 2678 
Q 984 2450 984 1813 
L 984 0 
L 422 0 
z
" transform="scale(0.015625)"/>
     </defs>
     <use xlink:href="#ArialMT-31"/>
     <use xlink:href="#ArialMT-32" x="55.615234"/>
     <use xlink:href="#ArialMT-2e" x="111.230469"/>
     <use xlink:href="#ArialMT-33" x="139.013672"/>
     <use xlink:href="#ArialMT-6b" x="194.628906"/>
     <use xlink:href="#ArialMT-20" x="244.628906"/>
     <use xlink:href="#ArialMT-73" x="272.412109"/>
     <use xlink:href="#ArialMT-61" x="322.412109"/>
     <use xlink:href="#ArialMT-6d" x="378.027344"/>
     <use xlink:href="#ArialMT-70" x="461.328125"/>
     <use xlink:href="#ArialMT-6c" x="516.943359"/>
     <use xlink:href="#ArialMT-65" x="539.160156"/>
     <use xlink:href="#ArialMT-73" x="594.775391"/>
     <use xlink:href="#ArialMT-2c" x="644.775391"/>
     <use xlink:href="#ArialMT-20" x="672.558594"/>
     <use xlink:href="#ArialMT-61" x="700.341797"/>
     <use xlink:href="#ArialMT-76" x="755.957031"/>
     <use xlink:href="#ArialMT-65" x="805.957031"/>
     <use xlink:href="#ArialMT-72" x="861.572266"/>
     <use xlink:href="#ArialMT-61" x="894.873047"/>
     <use xlink:href="#ArialMT-67" x="950.488281"/>
     <use xlink:href="#ArialMT-65" x="1006.103516"/>
     <use xlink:href="#ArialMT-20" x="1061.71875"/>
     <use xlink:href="#ArialMT-62" x="1089.501953"/>
     <use xlink:href="#ArialMT-79" x="1145.117188"/>
     <use xlink:href="#ArialMT-20" x="1195.117188"/>
     <use xlink:href="#ArialMT-31" x="1222.900391"/>
     <use xlink:href="#ArialMT-30" x="1278.515625"/>
     <use xlink:href="#ArialMT-20" x="1334.130859"/>
     <use xlink:href="#ArialMT-72" x="1361.914062"/>
     <use xlink:href="#ArialMT-75" x="1395.214844"/>
     <use xlink:href="#ArialMT-6e" x="1450.830078"/>
     <use xlink:href="#ArialMT-73" x="1506.445312"/>
    </g>
   </g>
   <g id="text_15">
    <!-- Average Time - Not Batched -->
    <g style="fill: #262626" transform="translate(317.949375 21.65625) scale(0.12 -0.12)">
     <defs>
      <path id="ArialMT-2d" d="M 203 1375 
L 203 1941 
L 1931 1941 
L 1931 1375 
L 203 1375 
z
" transform="scale(0.015625)"/>
      <path id="ArialMT-4e" d="M 488 0 
L 488 4581 
L 1109 4581 
L 3516 984 
L 3516 4581 
L 4097 4581 
L 4097 0 
L 3475 0 
L 1069 3600 
L 1069 0 
L 488 0 
z
" transform="scale(0.015625)"/>
      <path id="ArialMT-42" d="M 469 0 
L 469 4581 
L 2188 4581 
Q 2713 4581 3030 4442 
Q 3347 4303 3526 4014 
Q 3706 3725 3706 3409 
Q 3706 3116 3547 2856 
Q 3388 2597 3066 2438 
Q 3481 2316 3704 2022 
Q 3928 1728 3928 1328 
Q 3928 1006 3792 729 
Q 3656 453 3456 303 
Q 3256 153 2954 76 
Q 2653 0 2216 0 
L 469 0 
z
M 1075 2656 
L 2066 2656 
Q 2469 2656 2644 2709 
Q 2875 2778 2992 2937 
Q 3109 3097 3109 3338 
Q 3109 3566 3000 3739 
Q 2891 3913 2687 3977 
Q 2484 4041 1991 4041 
L 1075 4041 
L 1075 2656 
z
M 1075 541 
L 2216 541 
Q 2509 541 2628 563 
Q 2838 600 2978 687 
Q 3119 775 3209 942 
Q 3300 1109 3300 1328 
Q 3300 1584 3169 1773 
Q 3038 1963 2805 2039 
Q 2572 2116 2134 2116 
L 1075 2116 
L 1075 541 
z
" transform="scale(0.015625)"/>
     </defs>
     <use xlink:href="#ArialMT-41"/>
     <use xlink:href="#ArialMT-76" x="64.949219"/>
     <use xlink:href="#ArialMT-65" x="114.949219"/>
     <use xlink:href="#ArialMT-72" x="170.564453"/>
     <use xlink:href="#ArialMT-61" x="203.865234"/>
     <use xlink:href="#ArialMT-67" x="259.480469"/>
     <use xlink:href="#ArialMT-65" x="315.095703"/>
     <use xlink:href="#ArialMT-20" x="370.710938"/>
     <use xlink:href="#ArialMT-54" x="396.744141"/>
     <use xlink:href="#ArialMT-69" x="454.078125"/>
     <use xlink:href="#ArialMT-6d" x="476.294922"/>
     <use xlink:href="#ArialMT-65" x="559.595703"/>
     <use xlink:href="#ArialMT-20" x="615.210938"/>
     <use xlink:href="#ArialMT-2d" x="642.994141"/>
     <use xlink:href="#ArialMT-20" x="676.294922"/>
     <use xlink:href="#ArialMT-4e" x="704.078125"/>
     <use xlink:href="#ArialMT-6f" x="776.294922"/>
     <use xlink:href="#ArialMT-74" x="831.910156"/>
     <use xlink:href="#ArialMT-20" x="859.693359"/>
     <use xlink:href="#ArialMT-42" x="887.476562"/>
     <use xlink:href="#ArialMT-61" x="954.175781"/>
     <use xlink:href="#ArialMT-74" x="1009.791016"/>
     <use xlink:href="#ArialMT-63" x="1037.574219"/>
     <use xlink:href="#ArialMT-68" x="1087.574219"/>
     <use xlink:href="#ArialMT-65" x="1143.189453"/>
     <use xlink:href="#ArialMT-64" x="1198.804688"/>
    </g>
   </g>
   <g id="legend_1">
    <g id="patch_22">
     <path d="M 60.62 100.405625 
L 146.578125 100.405625 
Q 148.778125 100.405625 148.778125 98.205625 
L 148.778125 35.35625 
Q 148.778125 33.15625 146.578125 33.15625 
L 60.62 33.15625 
Q 58.42 33.15625 58.42 35.35625 
L 58.42 98.205625 
Q 58.42 100.405625 60.62 100.405625 
z
" style="fill: #ffffff; opacity: 0.8; stroke: #cccccc; stroke-linejoin: miter"/>
    </g>
    <g id="text_16">
     <!-- Library -->
     <g style="fill: #262626" transform="translate(85.260625 46.145625) scale(0.12 -0.12)">
      <defs>
       <path id="ArialMT-4c" d="M 469 0 
L 469 4581 
L 1075 4581 
L 1075 541 
L 3331 541 
L 3331 0 
L 469 0 
z
" transform="scale(0.015625)"/>
      </defs>
      <use xlink:href="#ArialMT-4c"/>
      <use xlink:href="#ArialMT-69" x="55.615234"/>
      <use xlink:href="#ArialMT-62" x="77.832031"/>
      <use xlink:href="#ArialMT-72" x="133.447266"/>
      <use xlink:href="#ArialMT-61" x="166.748047"/>
      <use xlink:href="#ArialMT-72" x="222.363281"/>
      <use xlink:href="#ArialMT-79" x="255.664062"/>
     </g>
    </g>
    <g id="patch_23">
     <path d="M 62.82 62.178906 
L 84.82 62.178906 
L 84.82 54.478906 
L 62.82 54.478906 
z
" style="fill: #5875a4; stroke: #ffffff; stroke-linejoin: miter"/>
    </g>
    <g id="text_17">
     <!-- fast-aug -->
     <g style="fill: #262626" transform="translate(93.62 62.178906) scale(0.11 -0.11)">
      <defs>
       <path id="ArialMT-66" d="M 556 0 
L 556 2881 
L 59 2881 
L 59 3319 
L 556 3319 
L 556 3672 
Q 556 4006 616 4169 
Q 697 4388 901 4523 
Q 1106 4659 1475 4659 
Q 1713 4659 2000 4603 
L 1916 4113 
Q 1741 4144 1584 4144 
Q 1328 4144 1222 4034 
Q 1116 3925 1116 3625 
L 1116 3319 
L 1763 3319 
L 1763 2881 
L 1116 2881 
L 1116 0 
L 556 0 
z
" transform="scale(0.015625)"/>
      </defs>
      <use xlink:href="#ArialMT-66"/>
      <use xlink:href="#ArialMT-61" x="27.783203"/>
      <use xlink:href="#ArialMT-73" x="83.398438"/>
      <use xlink:href="#ArialMT-74" x="133.398438"/>
      <use xlink:href="#ArialMT-2d" x="161.181641"/>
      <use xlink:href="#ArialMT-61" x="194.482422"/>
      <use xlink:href="#ArialMT-75" x="250.097656"/>
      <use xlink:href="#ArialMT-67" x="305.712891"/>
     </g>
    </g>
    <g id="patch_24">
     <path d="M 62.82 78.001719 
L 84.82 78.001719 
L 84.82 70.301719 
L 62.82 70.301719 
z
" style="fill: #cc8963; stroke: #ffffff; stroke-linejoin: miter"/>
    </g>
    <g id="text_18">
     <!-- fastnlpaug -->
     <g style="fill: #262626" transform="translate(93.62 78.001719) scale(0.11 -0.11)">
      <use xlink:href="#ArialMT-66"/>
      <use xlink:href="#ArialMT-61" x="27.783203"/>
      <use xlink:href="#ArialMT-73" x="83.398438"/>
      <use xlink:href="#ArialMT-74" x="133.398438"/>
      <use xlink:href="#ArialMT-6e" x="161.181641"/>
      <use xlink:href="#ArialMT-6c" x="216.796875"/>
      <use xlink:href="#ArialMT-70" x="239.013672"/>
      <use xlink:href="#ArialMT-61" x="294.628906"/>
      <use xlink:href="#ArialMT-75" x="350.244141"/>
      <use xlink:href="#ArialMT-67" x="405.859375"/>
     </g>
    </g>
    <g id="patch_25">
     <path d="M 62.82 93.690469 
L 84.82 93.690469 
L 84.82 85.990469 
L 62.82 85.990469 
z
" style="fill: #5f9e6e; stroke: #ffffff; stroke-linejoin: miter"/>
    </g>
    <g id="text_19">
     <!-- nlpaug -->
     <g style="fill: #262626" transform="translate(93.62 93.690469) scale(0.11 -0.11)">
      <use xlink:href="#ArialMT-6e"/>
      <use xlink:href="#ArialMT-6c" x="55.615234"/>
      <use xlink:href="#ArialMT-70" x="77.832031"/>
      <use xlink:href="#ArialMT-61" x="133.447266"/>
      <use xlink:href="#ArialMT-75" x="189.0625"/>
      <use xlink:href="#ArialMT-67" x="244.677734"/>
     </g>
    </g>
   </g>
  </g>
  <g id="axes_2">
   <g id="patch_26">
    <path d="M 746.46 383.94 
L 1427.04 383.94 
L 1427.04 27.65625 
L 746.46 27.65625 
z
" style="fill: #ffffff"/>
   </g>
   <g id="matplotlib.axis_3">
    <g id="xtick_5">
     <g id="text_20">
      <!-- words_swap -->
      <g style="fill: #262626" transform="translate(800.964531 401.313594) scale(0.11 -0.11)">
       <use xlink:href="#ArialMT-77"/>
       <use xlink:href="#ArialMT-6f" x="72.216797"/>
       <use xlink:href="#ArialMT-72" x="127.832031"/>
       <use xlink:href="#ArialMT-64" x="161.132812"/>
       <use xlink:href="#ArialMT-73" x="216.748047"/>
       <use xlink:href="#ArialMT-5f" x="266.748047"/>
       <use xlink:href="#ArialMT-73" x="322.363281"/>
       <use xlink:href="#ArialMT-77" x="372.363281"/>
       <use xlink:href="#ArialMT-61" x="444.580078"/>
       <use xlink:href="#ArialMT-70" x="500.195312"/>
      </g>
     </g>
    </g>
    <g id="xtick_6">
     <g id="text_21">
      <!-- words_delete -->
      <g style="fill: #262626" transform="translate(968.964531 401.313594) scale(0.11 -0.11)">
       <use xlink:href="#ArialMT-77"/>
       <use xlink:href="#ArialMT-6f" x="72.216797"/>
       <use xlink:href="#ArialMT-72" x="127.832031"/>
       <use xlink:href="#ArialMT-64" x="161.132812"/>
       <use xlink:href="#ArialMT-73" x="216.748047"/>
       <use xlink:href="#ArialMT-5f" x="266.748047"/>
       <use xlink:href="#ArialMT-64" x="322.363281"/>
       <use xlink:href="#ArialMT-65" x="377.978516"/>
       <use xlink:href="#ArialMT-6c" x="433.59375"/>
       <use xlink:href="#ArialMT-65" x="455.810547"/>
       <use xlink:href="#ArialMT-74" x="511.425781"/>
       <use xlink:href="#ArialMT-65" x="539.208984"/>
      </g>
     </g>
    </g>
    <g id="xtick_7">
     <g id="text_22">
      <!-- chars_swap -->
      <g style="fill: #262626" transform="translate(1142.476562 401.313594) scale(0.11 -0.11)">
       <use xlink:href="#ArialMT-63"/>
       <use xlink:href="#ArialMT-68" x="50"/>
       <use xlink:href="#ArialMT-61" x="105.615234"/>
       <use xlink:href="#ArialMT-72" x="161.230469"/>
       <use xlink:href="#ArialMT-73" x="194.53125"/>
       <use xlink:href="#ArialMT-5f" x="244.53125"/>
       <use xlink:href="#ArialMT-73" x="300.146484"/>
       <use xlink:href="#ArialMT-77" x="350.146484"/>
       <use xlink:href="#ArialMT-61" x="422.363281"/>
       <use xlink:href="#ArialMT-70" x="477.978516"/>
      </g>
     </g>
    </g>
    <g id="xtick_8">
     <g id="text_23">
      <!-- chars_delete -->
      <g style="fill: #262626" transform="translate(1310.476562 401.313594) scale(0.11 -0.11)">
       <use xlink:href="#ArialMT-63"/>
       <use xlink:href="#ArialMT-68" x="50"/>
       <use xlink:href="#ArialMT-61" x="105.615234"/>
       <use xlink:href="#ArialMT-72" x="161.230469"/>
       <use xlink:href="#ArialMT-73" x="194.53125"/>
       <use xlink:href="#ArialMT-5f" x="244.53125"/>
       <use xlink:href="#ArialMT-64" x="300.146484"/>
       <use xlink:href="#ArialMT-65" x="355.761719"/>
       <use xlink:href="#ArialMT-6c" x="411.376953"/>
       <use xlink:href="#ArialMT-65" x="433.59375"/>
       <use xlink:href="#ArialMT-74" x="489.208984"/>
       <use xlink:href="#ArialMT-65" x="516.992188"/>
      </g>
     </g>
    </g>
    <g id="text_24">
     <!-- Method -->
     <g style="fill: #262626" transform="translate(1066.739063 416.089219) scale(0.12 -0.12)">
      <use xlink:href="#ArialMT-4d"/>
      <use xlink:href="#ArialMT-65" x="83.300781"/>
      <use xlink:href="#ArialMT-74" x="138.916016"/>
      <use xlink:href="#ArialMT-68" x="166.699219"/>
      <use xlink:href="#ArialMT-6f" x="222.314453"/>
      <use xlink:href="#ArialMT-64" x="277.929688"/>
     </g>
    </g>
   </g>
   <g id="matplotlib.axis_4">
    <g id="ytick_8">
     <g id="line2d_20">
      <path d="M 746.46 383.94 
L 1427.04 383.94 
" clip-path="url(#pcb9db40232)" style="fill: none; stroke: #cccccc; stroke-linecap: round"/>
     </g>
    </g>
    <g id="ytick_9">
     <g id="line2d_21">
      <path d="M 746.46 329.928651 
L 1427.04 329.928651 
" clip-path="url(#pcb9db40232)" style="fill: none; stroke: #cccccc; stroke-linecap: round"/>
     </g>
    </g>
    <g id="ytick_10">
     <g id="line2d_22">
      <path d="M 746.46 275.917301 
L 1427.04 275.917301 
" clip-path="url(#pcb9db40232)" style="fill: none; stroke: #cccccc; stroke-linecap: round"/>
     </g>
    </g>
    <g id="ytick_11">
     <g id="line2d_23">
      <path d="M 746.46 221.905952 
L 1427.04 221.905952 
" clip-path="url(#pcb9db40232)" style="fill: none; stroke: #cccccc; stroke-linecap: round"/>
     </g>
    </g>
    <g id="ytick_12">
     <g id="line2d_24">
      <path d="M 746.46 167.894602 
L 1427.04 167.894602 
" clip-path="url(#pcb9db40232)" style="fill: none; stroke: #cccccc; stroke-linecap: round"/>
     </g>
    </g>
    <g id="ytick_13">
     <g id="line2d_25">
      <path d="M 746.46 113.883253 
L 1427.04 113.883253 
" clip-path="url(#pcb9db40232)" style="fill: none; stroke: #cccccc; stroke-linecap: round"/>
     </g>
    </g>
    <g id="ytick_14">
     <g id="line2d_26">
      <path d="M 746.46 59.871904 
L 1427.04 59.871904 
" clip-path="url(#pcb9db40232)" style="fill: none; stroke: #cccccc; stroke-linecap: round"/>
     </g>
    </g>
   </g>
   <g id="patch_27">
    <path d="M 763.4745 383.94 
L 808.8465 383.94 
L 808.8465 372.310685 
L 763.4745 372.310685 
z
" clip-path="url(#pcb9db40232)" style="fill: #5875a4; stroke: #ffffff; stroke-linejoin: miter"/>
   </g>
   <g id="patch_28">
    <path d="M 933.6195 383.94 
L 978.9915 383.94 
L 978.9915 372.057527 
L 933.6195 372.057527 
z
" clip-path="url(#pcb9db40232)" style="fill: #5875a4; stroke: #ffffff; stroke-linejoin: miter"/>
   </g>
   <g id="patch_29">
    <path d="M 1103.7645 383.94 
L 1149.1365 383.94 
L 1149.1365 368.654248 
L 1103.7645 368.654248 
z
" clip-path="url(#pcb9db40232)" style="fill: #5875a4; stroke: #ffffff; stroke-linejoin: miter"/>
   </g>
   <g id="patch_30">
    <path d="M 1273.9095 383.94 
L 1319.2815 383.94 
L 1319.2815 369.642932 
L 1273.9095 369.642932 
z
" clip-path="url(#pcb9db40232)" style="fill: #5875a4; stroke: #ffffff; stroke-linejoin: miter"/>
   </g>
   <g id="patch_31">
    <path d="M 808.8465 383.94 
L 854.2185 383.94 
L 854.2185 371.032722 
L 808.8465 371.032722 
z
" clip-path="url(#pcb9db40232)" style="fill: #cc8963; stroke: #ffffff; stroke-linejoin: miter"/>
   </g>
   <g id="patch_32">
    <path d="M 978.9915 383.94 
L 1024.3635 383.94 
L 1024.3635 373.529395 
L 978.9915 373.529395 
z
" clip-path="url(#pcb9db40232)" style="fill: #cc8963; stroke: #ffffff; stroke-linejoin: miter"/>
   </g>
   <g id="patch_33">
    <path d="M 1149.1365 383.94 
L 1194.5085 383.94 
L 1194.5085 349.754132 
L 1149.1365 349.754132 
z
" clip-path="url(#pcb9db40232)" style="fill: #cc8963; stroke: #ffffff; stroke-linejoin: miter"/>
   </g>
   <g id="patch_34">
    <path d="M 1319.2815 383.94 
L 1364.6535 383.94 
L 1364.6535 364.882241 
L 1319.2815 364.882241 
z
" clip-path="url(#pcb9db40232)" style="fill: #cc8963; stroke: #ffffff; stroke-linejoin: miter"/>
   </g>
   <g id="patch_35">
    <path d="M 854.2185 383.94 
L 899.5905 383.94 
L 899.5905 179.667668 
L 854.2185 179.667668 
z
" clip-path="url(#pcb9db40232)" style="fill: #5f9e6e; stroke: #ffffff; stroke-linejoin: miter"/>
   </g>
   <g id="patch_36">
    <path d="M 1024.3635 383.94 
L 1069.7355 383.94 
L 1069.7355 217.706334 
L 1024.3635 217.706334 
z
" clip-path="url(#pcb9db40232)" style="fill: #5f9e6e; stroke: #ffffff; stroke-linejoin: miter"/>
   </g>
   <g id="patch_37">
    <path d="M 1194.5085 383.94 
L 1239.8805 383.94 
L 1239.8805 55.389287 
L 1194.5085 55.389287 
z
" clip-path="url(#pcb9db40232)" style="fill: #5f9e6e; stroke: #ffffff; stroke-linejoin: miter"/>
   </g>
   <g id="patch_38">
    <path d="M 1364.6535 383.94 
L 1410.0255 383.94 
L 1410.0255 158.108734 
L 1364.6535 158.108734 
z
" clip-path="url(#pcb9db40232)" style="fill: #5f9e6e; stroke: #ffffff; stroke-linejoin: miter"/>
   </g>
   <g id="patch_39">
    <path d="M 831.5325 383.94 
L 831.5325 383.94 
L 831.5325 383.94 
L 831.5325 383.94 
z
" clip-path="url(#pcb9db40232)" style="fill: #5875a4; stroke: #ffffff; stroke-linejoin: miter"/>
   </g>
   <g id="patch_40">
    <path d="M 831.5325 383.94 
L 831.5325 383.94 
L 831.5325 383.94 
L 831.5325 383.94 
z
" clip-path="url(#pcb9db40232)" style="fill: #cc8963; stroke: #ffffff; stroke-linejoin: miter"/>
   </g>
   <g id="patch_41">
    <path d="M 831.5325 383.94 
L 831.5325 383.94 
L 831.5325 383.94 
L 831.5325 383.94 
z
" clip-path="url(#pcb9db40232)" style="fill: #5f9e6e; stroke: #ffffff; stroke-linejoin: miter"/>
   </g>
   <g id="line2d_27">
    <path d="M 786.1605 372.458766 
L 786.1605 372.189022 
" clip-path="url(#pcb9db40232)" style="fill: none; stroke: #424242; stroke-width: 2.25; stroke-linecap: round"/>
   </g>
   <g id="line2d_28">
    <path d="M 956.3055 372.137515 
L 956.3055 371.9661 
" clip-path="url(#pcb9db40232)" style="fill: none; stroke: #424242; stroke-width: 2.25; stroke-linecap: round"/>
   </g>
   <g id="line2d_29">
    <path d="M 1126.4505 369.145729 
L 1126.4505 367.90965 
" clip-path="url(#pcb9db40232)" style="fill: none; stroke: #424242; stroke-width: 2.25; stroke-linecap: round"/>
   </g>
   <g id="line2d_30">
    <path d="M 1296.5955 369.938171 
L 1296.5955 369.308401 
" clip-path="url(#pcb9db40232)" style="fill: none; stroke: #424242; stroke-width: 2.25; stroke-linecap: round"/>
   </g>
   <g id="line2d_31">
    <path d="M 831.5325 371.312682 
L 831.5325 370.748264 
" clip-path="url(#pcb9db40232)" style="fill: none; stroke: #424242; stroke-width: 2.25; stroke-linecap: round"/>
   </g>
   <g id="line2d_32">
    <path d="M 1001.6775 373.696967 
L 1001.6775 373.345047 
" clip-path="url(#pcb9db40232)" style="fill: none; stroke: #424242; stroke-width: 2.25; stroke-linecap: round"/>
   </g>
   <g id="line2d_33">
    <path d="M 1171.8225 351.620885 
L 1171.8225 346.763085 
" clip-path="url(#pcb9db40232)" style="fill: none; stroke: #424242; stroke-width: 2.25; stroke-linecap: round"/>
   </g>
   <g id="line2d_34">
    <path d="M 1341.9675 365.158012 
L 1341.9675 364.50206 
" clip-path="url(#pcb9db40232)" style="fill: none; stroke: #424242; stroke-width: 2.25; stroke-linecap: round"/>
   </g>
   <g id="line2d_35">
    <path d="M 876.9045 180.858774 
L 876.9045 178.45365 
" clip-path="url(#pcb9db40232)" style="fill: none; stroke: #424242; stroke-width: 2.25; stroke-linecap: round"/>
   </g>
   <g id="line2d_36">
    <path d="M 1047.0495 219.30477 
L 1047.0495 215.333892 
" clip-path="url(#pcb9db40232)" style="fill: none; stroke: #424242; stroke-width: 2.25; stroke-linecap: round"/>
   </g>
   <g id="line2d_37">
    <path d="M 1217.1945 64.845547 
L 1217.1945 44.622143 
" clip-path="url(#pcb9db40232)" style="fill: none; stroke: #424242; stroke-width: 2.25; stroke-linecap: round"/>
   </g>
   <g id="line2d_38">
    <path d="M 1387.3395 160.0108 
L 1387.3395 156.515342 
" clip-path="url(#pcb9db40232)" style="fill: none; stroke: #424242; stroke-width: 2.25; stroke-linecap: round"/>
   </g>
   <g id="patch_42">
    <path d="M 746.46 383.94 
L 746.46 27.65625 
" style="fill: none; stroke: #cccccc; stroke-width: 1.25; stroke-linejoin: miter; stroke-linecap: square"/>
   </g>
   <g id="patch_43">
    <path d="M 1427.04 383.94 
L 1427.04 27.65625 
" style="fill: none; stroke: #cccccc; stroke-width: 1.25; stroke-linejoin: miter; stroke-linecap: square"/>
   </g>
   <g id="patch_44">
    <path d="M 746.46 383.94 
L 1427.04 383.94 
" style="fill: none; stroke: #cccccc; stroke-width: 1.25; stroke-linejoin: miter; stroke-linecap: square"/>
   </g>
   <g id="patch_45">
    <path d="M 746.46 27.65625 
L 1427.04 27.65625 
" style="fill: none; stroke: #cccccc; stroke-width: 1.25; stroke-linejoin: miter; stroke-linecap: square"/>
   </g>
   <g id="text_25">
    <!-- 12.3k samples, average by 10 runs -->
    <g style="fill: #808080" transform="translate(1264.601387 24.155237) scale(0.1 -0.1)">
     <use xlink:href="#ArialMT-31"/>
     <use xlink:href="#ArialMT-32" x="55.615234"/>
     <use xlink:href="#ArialMT-2e" x="111.230469"/>
     <use xlink:href="#ArialMT-33" x="139.013672"/>
     <use xlink:href="#ArialMT-6b" x="194.628906"/>
     <use xlink:href="#ArialMT-20" x="244.628906"/>
     <use xlink:href="#ArialMT-73" x="272.412109"/>
     <use xlink:href="#ArialMT-61" x="322.412109"/>
     <use xlink:href="#ArialMT-6d" x="378.027344"/>
     <use xlink:href="#ArialMT-70" x="461.328125"/>
     <use xlink:href="#ArialMT-6c" x="516.943359"/>
     <use xlink:href="#ArialMT-65" x="539.160156"/>
     <use xlink:href="#ArialMT-73" x="594.775391"/>
     <use xlink:href="#ArialMT-2c" x="644.775391"/>
     <use xlink:href="#ArialMT-20" x="672.558594"/>
     <use xlink:href="#ArialMT-61" x="700.341797"/>
     <use xlink:href="#ArialMT-76" x="755.957031"/>
     <use xlink:href="#ArialMT-65" x="805.957031"/>
     <use xlink:href="#ArialMT-72" x="861.572266"/>
     <use xlink:href="#ArialMT-61" x="894.873047"/>
     <use xlink:href="#ArialMT-67" x="950.488281"/>
     <use xlink:href="#ArialMT-65" x="1006.103516"/>
     <use xlink:href="#ArialMT-20" x="1061.71875"/>
     <use xlink:href="#ArialMT-62" x="1089.501953"/>
     <use xlink:href="#ArialMT-79" x="1145.117188"/>
     <use xlink:href="#ArialMT-20" x="1195.117188"/>
     <use xlink:href="#ArialMT-31" x="1222.900391"/>
     <use xlink:href="#ArialMT-30" x="1278.515625"/>
     <use xlink:href="#ArialMT-20" x="1334.130859"/>
     <use xlink:href="#ArialMT-72" x="1361.914062"/>
     <use xlink:href="#ArialMT-75" x="1395.214844"/>
     <use xlink:href="#ArialMT-6e" x="1450.830078"/>
     <use xlink:href="#ArialMT-73" x="1506.445312"/>
    </g>
   </g>
   <g id="text_26">
    <!-- Average Time - Batched -->
    <g style="fill: #262626" transform="translate(1022.492813 21.65625) scale(0.12 -0.12)">
     <use xlink:href="#ArialMT-41"/>
     <use xlink:href="#ArialMT-76" x="64.949219"/>
     <use xlink:href="#ArialMT-65" x="114.949219"/>
     <use xlink:href="#ArialMT-72" x="170.564453"/>
     <use xlink:href="#ArialMT-61" x="203.865234"/>
     <use xlink:href="#ArialMT-67" x="259.480469"/>
     <use xlink:href="#ArialMT-65" x="315.095703"/>
     <use xlink:href="#ArialMT-20" x="370.710938"/>
     <use xlink:href="#ArialMT-54" x="396.744141"/>
     <use xlink:href="#ArialMT-69" x="454.078125"/>
     <use xlink:href="#ArialMT-6d" x="476.294922"/>
     <use xlink:href="#ArialMT-65" x="559.595703"/>
     <use xlink:href="#ArialMT-20" x="615.210938"/>
     <use xlink:href="#ArialMT-2d" x="642.994141"/>
     <use xlink:href="#ArialMT-20" x="676.294922"/>
     <use xlink:href="#ArialMT-42" x="704.078125"/>
     <use xlink:href="#ArialMT-61" x="770.777344"/>
     <use xlink:href="#ArialMT-74" x="826.392578"/>
     <use xlink:href="#ArialMT-63" x="854.175781"/>
     <use xlink:href="#ArialMT-68" x="904.175781"/>
     <use xlink:href="#ArialMT-65" x="959.791016"/>
     <use xlink:href="#ArialMT-64" x="1015.40625"/>
    </g>
   </g>
   <g id="legend_2">
    <g id="patch_46">
     <path d="M 754.16 100.405625 
L 840.118125 100.405625 
Q 842.318125 100.405625 842.318125 98.205625 
L 842.318125 35.35625 
Q 842.318125 33.15625 840.118125 33.15625 
L 754.16 33.15625 
Q 751.96 33.15625 751.96 35.35625 
L 751.96 98.205625 
Q 751.96 100.405625 754.16 100.405625 
z
" style="fill: #ffffff; opacity: 0.8; stroke: #cccccc; stroke-linejoin: miter"/>
    </g>
    <g id="text_27">
     <!-- Library -->
     <g style="fill: #262626" transform="translate(778.800625 46.145625) scale(0.12 -0.12)">
      <use xlink:href="#ArialMT-4c"/>
      <use xlink:href="#ArialMT-69" x="55.615234"/>
      <use xlink:href="#ArialMT-62" x="77.832031"/>
      <use xlink:href="#ArialMT-72" x="133.447266"/>
      <use xlink:href="#ArialMT-61" x="166.748047"/>
      <use xlink:href="#ArialMT-72" x="222.363281"/>
      <use xlink:href="#ArialMT-79" x="255.664062"/>
     </g>
    </g>
    <g id="patch_47">
     <path d="M 756.36 62.178906 
L 778.36 62.178906 
L 778.36 54.478906 
L 756.36 54.478906 
z
" style="fill: #5875a4; stroke: #ffffff; stroke-linejoin: miter"/>
    </g>
    <g id="text_28">
     <!-- fast-aug -->
     <g style="fill: #262626" transform="translate(787.16 62.178906) scale(0.11 -0.11)">
      <use xlink:href="#ArialMT-66"/>
      <use xlink:href="#ArialMT-61" x="27.783203"/>
      <use xlink:href="#ArialMT-73" x="83.398438"/>
      <use xlink:href="#ArialMT-74" x="133.398438"/>
      <use xlink:href="#ArialMT-2d" x="161.181641"/>
      <use xlink:href="#ArialMT-61" x="194.482422"/>
      <use xlink:href="#ArialMT-75" x="250.097656"/>
      <use xlink:href="#ArialMT-67" x="305.712891"/>
     </g>
    </g>
    <g id="patch_48">
     <path d="M 756.36 78.001719 
L 778.36 78.001719 
L 778.36 70.301719 
L 756.36 70.301719 
z
" style="fill: #cc8963; stroke: #ffffff; stroke-linejoin: miter"/>
    </g>
    <g id="text_29">
     <!-- fastnlpaug -->
     <g style="fill: #262626" transform="translate(787.16 78.001719) scale(0.11 -0.11)">
      <use xlink:href="#ArialMT-66"/>
      <use xlink:href="#ArialMT-61" x="27.783203"/>
      <use xlink:href="#ArialMT-73" x="83.398438"/>
      <use xlink:href="#ArialMT-74" x="133.398438"/>
      <use xlink:href="#ArialMT-6e" x="161.181641"/>
      <use xlink:href="#ArialMT-6c" x="216.796875"/>
      <use xlink:href="#ArialMT-70" x="239.013672"/>
      <use xlink:href="#ArialMT-61" x="294.628906"/>
      <use xlink:href="#ArialMT-75" x="350.244141"/>
      <use xlink:href="#ArialMT-67" x="405.859375"/>
     </g>
    </g>
    <g id="patch_49">
     <path d="M 756.36 93.690469 
L 778.36 93.690469 
L 778.36 85.990469 
L 756.36 85.990469 
z
" style="fill: #5f9e6e; stroke: #ffffff; stroke-linejoin: miter"/>
    </g>
    <g id="text_30">
     <!-- nlpaug -->
     <g style="fill: #262626" transform="translate(787.16 93.690469) scale(0.11 -0.11)">
      <use xlink:href="#ArialMT-6e"/>
      <use xlink:href="#ArialMT-6c" x="55.615234"/>
      <use xlink:href="#ArialMT-70" x="77.832031"/>
      <use xlink:href="#ArialMT-61" x="133.447266"/>
      <use xlink:href="#ArialMT-75" x="189.0625"/>
      <use xlink:href="#ArialMT-67" x="244.677734"/>
     </g>
    </g>
   </g>
  </g>
 </g>
 <defs>
  <clipPath id="peffee8295c">
   <rect x="52.92" y="27.65625" width="680.58" height="356.28375"/>
  </clipPath>
  <clipPath id="pcb9db40232">
   <rect x="746.46" y="27.65625" width="680.58" height="356.28375"/>
  </clipPath>
 </defs>
</svg>
