<?xml version="1.0" encoding="utf-8" standalone="no"?>
<!DOCTYPE svg PUBLIC "-//W3C//DTD SVG 1.1//EN"
  "http://www.w3.org/Graphics/SVG/1.1/DTD/svg11.dtd">
<svg xmlns:xlink="http://www.w3.org/1999/xlink" width="1440pt" height="432pt" viewBox="0 0 1440 432" xmlns="http://www.w3.org/2000/svg" version="1.1">
 <metadata>
  <rdf:RDF xmlns:dc="http://purl.org/dc/elements/1.1/" xmlns:cc="http://creativecommons.org/ns#" xmlns:rdf="http://www.w3.org/1999/02/22-rdf-syntax-ns#">
   <cc:Work>
    <dc:type rdf:resource="http://purl.org/dc/dcmitype/StillImage"/>
    <dc:date>2024-01-26T14:42:40.610369</dc:date>
    <dc:format>image/svg+xml</dc:format>
    <dc:creator>
     <cc:Agent>
      <dc:title>Matplotlib v3.8.2, https://matplotlib.org/</dc:title>
     </cc:Agent>
    </dc:creator>
   </cc:Work>
  </rdf:RDF>
 </metadata>
 <defs>
  <style type="text/css">*{stroke-linejoin: round; stroke-linecap: butt}</style>
 </defs>
 <g id="figure_1">
  <g id="patch_1">
   <path d="M 0 432 
L 1440 432 
L 1440 0 
L 0 0 
z
" style="fill: #ffffff"/>
  </g>
  <g id="axes_1">
   <g id="patch_2">
    <path d="M 49.905 383.94 
L 731.9925 383.94 
L 731.9925 27.65625 
L 49.905 27.65625 
z
" style="fill: #ffffff"/>
   </g>
   <g id="matplotlib.axis_1">
    <g id="xtick_1">
     <g id="text_1">
      <!-- words_swap -->
      <g style="fill: #262626" transform="translate(104.597969 401.313594) scale(0.11 -0.11)">
       <defs>
        <path id="ArialMT-77" d="M 1034 0 
L 19 3319 
L 600 3319 
L 1128 1403 
L 1325 691 
Q 1338 744 1497 1375 
L 2025 3319 
L 2603 3319 
L 3100 1394 
L 3266 759 
L 3456 1400 
L 4025 3319 
L 4572 3319 
L 3534 0 
L 2950 0 
L 2422 1988 
L 2294 2553 
L 1622 0 
L 1034 0 
z
" transform="scale(0.015625)"/>
        <path id="ArialMT-6f" d="M 213 1659 
Q 213 2581 725 3025 
Q 1153 3394 1769 3394 
Q 2453 3394 2887 2945 
Q 3322 2497 3322 1706 
Q 3322 1066 3130 698 
Q 2938 331 2570 128 
Q 2203 -75 1769 -75 
Q 1072 -75 642 372 
Q 213 819 213 1659 
z
M 791 1659 
Q 791 1022 1069 705 
Q 1347 388 1769 388 
Q 2188 388 2466 706 
Q 2744 1025 2744 1678 
Q 2744 2294 2464 2611 
Q 2184 2928 1769 2928 
Q 1347 2928 1069 2612 
Q 791 2297 791 1659 
z
" transform="scale(0.015625)"/>
        <path id="ArialMT-72" d="M 416 0 
L 416 3319 
L 922 3319 
L 922 2816 
Q 1116 3169 1280 3281 
Q 1444 3394 1641 3394 
Q 1925 3394 2219 3213 
L 2025 2691 
Q 1819 2813 1613 2813 
Q 1428 2813 1281 2702 
Q 1134 2591 1072 2394 
Q 978 2094 978 1738 
L 978 0 
L 416 0 
z
" transform="scale(0.015625)"/>
        <path id="ArialMT-64" d="M 2575 0 
L 2575 419 
Q 2259 -75 1647 -75 
Q 1250 -75 917 144 
Q 584 363 401 755 
Q 219 1147 219 1656 
Q 219 2153 384 2558 
Q 550 2963 881 3178 
Q 1213 3394 1622 3394 
Q 1922 3394 2156 3267 
Q 2391 3141 2538 2938 
L 2538 4581 
L 3097 4581 
L 3097 0 
L 2575 0 
z
M 797 1656 
Q 797 1019 1065 703 
Q 1334 388 1700 388 
Q 2069 388 2326 689 
Q 2584 991 2584 1609 
Q 2584 2291 2321 2609 
Q 2059 2928 1675 2928 
Q 1300 2928 1048 2622 
Q 797 2316 797 1656 
z
" transform="scale(0.015625)"/>
        <path id="ArialMT-73" d="M 197 991 
L 753 1078 
Q 800 744 1014 566 
Q 1228 388 1613 388 
Q 2000 388 2187 545 
Q 2375 703 2375 916 
Q 2375 1106 2209 1216 
Q 2094 1291 1634 1406 
Q 1016 1563 777 1677 
Q 538 1791 414 1992 
Q 291 2194 291 2438 
Q 291 2659 392 2848 
Q 494 3038 669 3163 
Q 800 3259 1026 3326 
Q 1253 3394 1513 3394 
Q 1903 3394 2198 3281 
Q 2494 3169 2634 2976 
Q 2775 2784 2828 2463 
L 2278 2388 
Q 2241 2644 2061 2787 
Q 1881 2931 1553 2931 
Q 1166 2931 1000 2803 
Q 834 2675 834 2503 
Q 834 2394 903 2306 
Q 972 2216 1119 2156 
Q 1203 2125 1616 2013 
Q 2213 1853 2448 1751 
Q 2684 1650 2818 1456 
Q 2953 1263 2953 975 
Q 2953 694 2789 445 
Q 2625 197 2315 61 
Q 2006 -75 1616 -75 
Q 969 -75 630 194 
Q 291 463 197 991 
z
" transform="scale(0.015625)"/>
        <path id="ArialMT-5f" d="M -97 -1272 
L -97 -866 
L 3631 -866 
L 3631 -1272 
L -97 -1272 
z
" transform="scale(0.015625)"/>
        <path id="ArialMT-61" d="M 2588 409 
Q 2275 144 1986 34 
Q 1697 -75 1366 -75 
Q 819 -75 525 192 
Q 231 459 231 875 
Q 231 1119 342 1320 
Q 453 1522 633 1644 
Q 813 1766 1038 1828 
Q 1203 1872 1538 1913 
Q 2219 1994 2541 2106 
Q 2544 2222 2544 2253 
Q 2544 2597 2384 2738 
Q 2169 2928 1744 2928 
Q 1347 2928 1158 2789 
Q 969 2650 878 2297 
L 328 2372 
Q 403 2725 575 2942 
Q 747 3159 1072 3276 
Q 1397 3394 1825 3394 
Q 2250 3394 2515 3294 
Q 2781 3194 2906 3042 
Q 3031 2891 3081 2659 
Q 3109 2516 3109 2141 
L 3109 1391 
Q 3109 606 3145 398 
Q 3181 191 3288 0 
L 2700 0 
Q 2613 175 2588 409 
z
M 2541 1666 
Q 2234 1541 1622 1453 
Q 1275 1403 1131 1340 
Q 988 1278 909 1158 
Q 831 1038 831 891 
Q 831 666 1001 516 
Q 1172 366 1500 366 
Q 1825 366 2078 508 
Q 2331 650 2450 897 
Q 2541 1088 2541 1459 
L 2541 1666 
z
" transform="scale(0.015625)"/>
        <path id="ArialMT-70" d="M 422 -1272 
L 422 3319 
L 934 3319 
L 934 2888 
Q 1116 3141 1344 3267 
Q 1572 3394 1897 3394 
Q 2322 3394 2647 3175 
Q 2972 2956 3137 2557 
Q 3303 2159 3303 1684 
Q 3303 1175 3120 767 
Q 2938 359 2589 142 
Q 2241 -75 1856 -75 
Q 1575 -75 1351 44 
Q 1128 163 984 344 
L 984 -1272 
L 422 -1272 
z
M 931 1641 
Q 931 1000 1190 694 
Q 1450 388 1819 388 
Q 2194 388 2461 705 
Q 2728 1022 2728 1688 
Q 2728 2322 2467 2637 
Q 2206 2953 1844 2953 
Q 1484 2953 1207 2617 
Q 931 2281 931 1641 
z
" transform="scale(0.015625)"/>
       </defs>
       <use xlink:href="#ArialMT-77"/>
       <use xlink:href="#ArialMT-6f" x="72.216797"/>
       <use xlink:href="#ArialMT-72" x="127.832031"/>
       <use xlink:href="#ArialMT-64" x="161.132812"/>
       <use xlink:href="#ArialMT-73" x="216.748047"/>
       <use xlink:href="#ArialMT-5f" x="266.748047"/>
       <use xlink:href="#ArialMT-73" x="322.363281"/>
       <use xlink:href="#ArialMT-77" x="372.363281"/>
       <use xlink:href="#ArialMT-61" x="444.580078"/>
       <use xlink:href="#ArialMT-70" x="500.195312"/>
      </g>
     </g>
    </g>
    <g id="xtick_2">
     <g id="text_2">
      <!-- words_delete -->
      <g style="fill: #262626" transform="translate(272.974844 401.313594) scale(0.11 -0.11)">
       <defs>
        <path id="ArialMT-65" d="M 2694 1069 
L 3275 997 
Q 3138 488 2766 206 
Q 2394 -75 1816 -75 
Q 1088 -75 661 373 
Q 234 822 234 1631 
Q 234 2469 665 2931 
Q 1097 3394 1784 3394 
Q 2450 3394 2872 2941 
Q 3294 2488 3294 1666 
Q 3294 1616 3291 1516 
L 816 1516 
Q 847 969 1125 678 
Q 1403 388 1819 388 
Q 2128 388 2347 550 
Q 2566 713 2694 1069 
z
M 847 1978 
L 2700 1978 
Q 2663 2397 2488 2606 
Q 2219 2931 1791 2931 
Q 1403 2931 1139 2672 
Q 875 2413 847 1978 
z
" transform="scale(0.015625)"/>
        <path id="ArialMT-6c" d="M 409 0 
L 409 4581 
L 972 4581 
L 972 0 
L 409 0 
z
" transform="scale(0.015625)"/>
        <path id="ArialMT-74" d="M 1650 503 
L 1731 6 
Q 1494 -44 1306 -44 
Q 1000 -44 831 53 
Q 663 150 594 308 
Q 525 466 525 972 
L 525 2881 
L 113 2881 
L 113 3319 
L 525 3319 
L 525 4141 
L 1084 4478 
L 1084 3319 
L 1650 3319 
L 1650 2881 
L 1084 2881 
L 1084 941 
Q 1084 700 1114 631 
Q 1144 563 1211 522 
Q 1278 481 1403 481 
Q 1497 481 1650 503 
z
" transform="scale(0.015625)"/>
       </defs>
       <use xlink:href="#ArialMT-77"/>
       <use xlink:href="#ArialMT-6f" x="72.216797"/>
       <use xlink:href="#ArialMT-72" x="127.832031"/>
       <use xlink:href="#ArialMT-64" x="161.132812"/>
       <use xlink:href="#ArialMT-73" x="216.748047"/>
       <use xlink:href="#ArialMT-5f" x="266.748047"/>
       <use xlink:href="#ArialMT-64" x="322.363281"/>
       <use xlink:href="#ArialMT-65" x="377.978516"/>
       <use xlink:href="#ArialMT-6c" x="433.59375"/>
       <use xlink:href="#ArialMT-65" x="455.810547"/>
       <use xlink:href="#ArialMT-74" x="511.425781"/>
       <use xlink:href="#ArialMT-65" x="539.208984"/>
      </g>
     </g>
    </g>
    <g id="xtick_3">
     <g id="text_3">
      <!-- chars_swap -->
      <g style="fill: #262626" transform="translate(446.86375 401.313594) scale(0.11 -0.11)">
       <defs>
        <path id="ArialMT-63" d="M 2588 1216 
L 3141 1144 
Q 3050 572 2676 248 
Q 2303 -75 1759 -75 
Q 1078 -75 664 370 
Q 250 816 250 1647 
Q 250 2184 428 2587 
Q 606 2991 970 3192 
Q 1334 3394 1763 3394 
Q 2303 3394 2647 3120 
Q 2991 2847 3088 2344 
L 2541 2259 
Q 2463 2594 2264 2762 
Q 2066 2931 1784 2931 
Q 1359 2931 1093 2626 
Q 828 2322 828 1663 
Q 828 994 1084 691 
Q 1341 388 1753 388 
Q 2084 388 2306 591 
Q 2528 794 2588 1216 
z
" transform="scale(0.015625)"/>
        <path id="ArialMT-68" d="M 422 0 
L 422 4581 
L 984 4581 
L 984 2938 
Q 1378 3394 1978 3394 
Q 2347 3394 2619 3248 
Q 2891 3103 3008 2847 
Q 3125 2591 3125 2103 
L 3125 0 
L 2563 0 
L 2563 2103 
Q 2563 2525 2380 2717 
Q 2197 2909 1863 2909 
Q 1613 2909 1392 2779 
Q 1172 2650 1078 2428 
Q 984 2206 984 1816 
L 984 0 
L 422 0 
z
" transform="scale(0.015625)"/>
       </defs>
       <use xlink:href="#ArialMT-63"/>
       <use xlink:href="#ArialMT-68" x="50"/>
       <use xlink:href="#ArialMT-61" x="105.615234"/>
       <use xlink:href="#ArialMT-72" x="161.230469"/>
       <use xlink:href="#ArialMT-73" x="194.53125"/>
       <use xlink:href="#ArialMT-5f" x="244.53125"/>
       <use xlink:href="#ArialMT-73" x="300.146484"/>
       <use xlink:href="#ArialMT-77" x="350.146484"/>
       <use xlink:href="#ArialMT-61" x="422.363281"/>
       <use xlink:href="#ArialMT-70" x="477.978516"/>
      </g>
     </g>
    </g>
    <g id="xtick_4">
     <g id="text_4">
      <!-- chars_delete -->
      <g style="fill: #262626" transform="translate(615.240625 401.313594) scale(0.11 -0.11)">
       <use xlink:href="#ArialMT-63"/>
       <use xlink:href="#ArialMT-68" x="50"/>
       <use xlink:href="#ArialMT-61" x="105.615234"/>
       <use xlink:href="#ArialMT-72" x="161.230469"/>
       <use xlink:href="#ArialMT-73" x="194.53125"/>
       <use xlink:href="#ArialMT-5f" x="244.53125"/>
       <use xlink:href="#ArialMT-64" x="300.146484"/>
       <use xlink:href="#ArialMT-65" x="355.761719"/>
       <use xlink:href="#ArialMT-6c" x="411.376953"/>
       <use xlink:href="#ArialMT-65" x="433.59375"/>
       <use xlink:href="#ArialMT-74" x="489.208984"/>
       <use xlink:href="#ArialMT-65" x="516.992188"/>
      </g>
     </g>
    </g>
    <g id="text_5">
     <!-- Method -->
     <g style="fill: #262626" transform="translate(370.937813 416.089219) scale(0.12 -0.12)">
      <defs>
       <path id="ArialMT-4d" d="M 475 0 
L 475 4581 
L 1388 4581 
L 2472 1338 
Q 2622 884 2691 659 
Q 2769 909 2934 1394 
L 4031 4581 
L 4847 4581 
L 4847 0 
L 4263 0 
L 4263 3834 
L 2931 0 
L 2384 0 
L 1059 3900 
L 1059 0 
L 475 0 
z
" transform="scale(0.015625)"/>
      </defs>
      <use xlink:href="#ArialMT-4d"/>
      <use xlink:href="#ArialMT-65" x="83.300781"/>
      <use xlink:href="#ArialMT-74" x="138.916016"/>
      <use xlink:href="#ArialMT-68" x="166.699219"/>
      <use xlink:href="#ArialMT-6f" x="222.314453"/>
      <use xlink:href="#ArialMT-64" x="277.929688"/>
     </g>
    </g>
   </g>
   <g id="matplotlib.axis_2">
    <g id="ytick_1">
     <g id="line2d_1">
      <path d="M 49.905 383.94 
L 731.9925 383.94 
" clip-path="url(#p3917278c6e)" style="fill: none; stroke: #cccccc; stroke-linecap: round"/>
     </g>
     <g id="text_6">
      <!-- 0 -->
      <g style="fill: #262626" transform="translate(34.287969 387.876797) scale(0.11 -0.11)">
       <defs>
        <path id="ArialMT-30" d="M 266 2259 
Q 266 3072 433 3567 
Q 600 4063 929 4331 
Q 1259 4600 1759 4600 
Q 2128 4600 2406 4451 
Q 2684 4303 2865 4023 
Q 3047 3744 3150 3342 
Q 3253 2941 3253 2259 
Q 3253 1453 3087 958 
Q 2922 463 2592 192 
Q 2263 -78 1759 -78 
Q 1097 -78 719 397 
Q 266 969 266 2259 
z
M 844 2259 
Q 844 1131 1108 757 
Q 1372 384 1759 384 
Q 2147 384 2411 759 
Q 2675 1134 2675 2259 
Q 2675 3391 2411 3762 
Q 2147 4134 1753 4134 
Q 1366 4134 1134 3806 
Q 844 3388 844 2259 
z
" transform="scale(0.015625)"/>
       </defs>
       <use xlink:href="#ArialMT-30"/>
      </g>
     </g>
    </g>
    <g id="ytick_2">
     <g id="line2d_2">
      <path d="M 49.905 316.743667 
L 731.9925 316.743667 
" clip-path="url(#p3917278c6e)" style="fill: none; stroke: #cccccc; stroke-linecap: round"/>
     </g>
     <g id="text_7">
      <!-- 2 -->
      <g style="fill: #262626" transform="translate(34.287969 320.680464) scale(0.11 -0.11)">
       <defs>
        <path id="ArialMT-32" d="M 3222 541 
L 3222 0 
L 194 0 
Q 188 203 259 391 
Q 375 700 629 1000 
Q 884 1300 1366 1694 
Q 2113 2306 2375 2664 
Q 2638 3022 2638 3341 
Q 2638 3675 2398 3904 
Q 2159 4134 1775 4134 
Q 1369 4134 1125 3890 
Q 881 3647 878 3216 
L 300 3275 
Q 359 3922 746 4261 
Q 1134 4600 1788 4600 
Q 2447 4600 2831 4234 
Q 3216 3869 3216 3328 
Q 3216 3053 3103 2787 
Q 2991 2522 2730 2228 
Q 2469 1934 1863 1422 
Q 1356 997 1212 845 
Q 1069 694 975 541 
L 3222 541 
z
" transform="scale(0.015625)"/>
       </defs>
       <use xlink:href="#ArialMT-32"/>
      </g>
     </g>
    </g>
    <g id="ytick_3">
     <g id="line2d_3">
      <path d="M 49.905 249.547334 
L 731.9925 249.547334 
" clip-path="url(#p3917278c6e)" style="fill: none; stroke: #cccccc; stroke-linecap: round"/>
     </g>
     <g id="text_8">
      <!-- 4 -->
      <g style="fill: #262626" transform="translate(34.287969 253.484131) scale(0.11 -0.11)">
       <defs>
        <path id="ArialMT-34" d="M 2069 0 
L 2069 1097 
L 81 1097 
L 81 1613 
L 2172 4581 
L 2631 4581 
L 2631 1613 
L 3250 1613 
L 3250 1097 
L 2631 1097 
L 2631 0 
L 2069 0 
z
M 2069 1613 
L 2069 3678 
L 634 1613 
L 2069 1613 
z
" transform="scale(0.015625)"/>
       </defs>
       <use xlink:href="#ArialMT-34"/>
      </g>
     </g>
    </g>
    <g id="ytick_4">
     <g id="line2d_4">
      <path d="M 49.905 182.351001 
L 731.9925 182.351001 
" clip-path="url(#p3917278c6e)" style="fill: none; stroke: #cccccc; stroke-linecap: round"/>
     </g>
     <g id="text_9">
      <!-- 6 -->
      <g style="fill: #262626" transform="translate(34.287969 186.287798) scale(0.11 -0.11)">
       <defs>
        <path id="ArialMT-36" d="M 3184 3459 
L 2625 3416 
Q 2550 3747 2413 3897 
Q 2184 4138 1850 4138 
Q 1581 4138 1378 3988 
Q 1113 3794 959 3422 
Q 806 3050 800 2363 
Q 1003 2672 1297 2822 
Q 1591 2972 1913 2972 
Q 2475 2972 2870 2558 
Q 3266 2144 3266 1488 
Q 3266 1056 3080 686 
Q 2894 316 2569 119 
Q 2244 -78 1831 -78 
Q 1128 -78 684 439 
Q 241 956 241 2144 
Q 241 3472 731 4075 
Q 1159 4600 1884 4600 
Q 2425 4600 2770 4297 
Q 3116 3994 3184 3459 
z
M 888 1484 
Q 888 1194 1011 928 
Q 1134 663 1356 523 
Q 1578 384 1822 384 
Q 2178 384 2434 671 
Q 2691 959 2691 1453 
Q 2691 1928 2437 2201 
Q 2184 2475 1800 2475 
Q 1419 2475 1153 2201 
Q 888 1928 888 1484 
z
" transform="scale(0.015625)"/>
       </defs>
       <use xlink:href="#ArialMT-36"/>
      </g>
     </g>
    </g>
    <g id="ytick_5">
     <g id="line2d_5">
      <path d="M 49.905 115.154669 
L 731.9925 115.154669 
" clip-path="url(#p3917278c6e)" style="fill: none; stroke: #cccccc; stroke-linecap: round"/>
     </g>
     <g id="text_10">
      <!-- 8 -->
      <g style="fill: #262626" transform="translate(34.287969 119.091466) scale(0.11 -0.11)">
       <defs>
        <path id="ArialMT-38" d="M 1131 2484 
Q 781 2613 612 2850 
Q 444 3088 444 3419 
Q 444 3919 803 4259 
Q 1163 4600 1759 4600 
Q 2359 4600 2725 4251 
Q 3091 3903 3091 3403 
Q 3091 3084 2923 2848 
Q 2756 2613 2416 2484 
Q 2838 2347 3058 2040 
Q 3278 1734 3278 1309 
Q 3278 722 2862 322 
Q 2447 -78 1769 -78 
Q 1091 -78 675 323 
Q 259 725 259 1325 
Q 259 1772 486 2073 
Q 713 2375 1131 2484 
z
M 1019 3438 
Q 1019 3113 1228 2906 
Q 1438 2700 1772 2700 
Q 2097 2700 2305 2904 
Q 2513 3109 2513 3406 
Q 2513 3716 2298 3927 
Q 2084 4138 1766 4138 
Q 1444 4138 1231 3931 
Q 1019 3725 1019 3438 
z
M 838 1322 
Q 838 1081 952 856 
Q 1066 631 1291 507 
Q 1516 384 1775 384 
Q 2178 384 2440 643 
Q 2703 903 2703 1303 
Q 2703 1709 2433 1975 
Q 2163 2241 1756 2241 
Q 1359 2241 1098 1978 
Q 838 1716 838 1322 
z
" transform="scale(0.015625)"/>
       </defs>
       <use xlink:href="#ArialMT-38"/>
      </g>
     </g>
    </g>
    <g id="ytick_6">
     <g id="line2d_6">
      <path d="M 49.905 47.958336 
L 731.9925 47.958336 
" clip-path="url(#p3917278c6e)" style="fill: none; stroke: #cccccc; stroke-linecap: round"/>
     </g>
     <g id="text_11">
      <!-- 10 -->
      <g style="fill: #262626" transform="translate(28.170937 51.895133) scale(0.11 -0.11)">
       <defs>
        <path id="ArialMT-31" d="M 2384 0 
L 1822 0 
L 1822 3584 
Q 1619 3391 1289 3197 
Q 959 3003 697 2906 
L 697 3450 
Q 1169 3672 1522 3987 
Q 1875 4303 2022 4600 
L 2384 4600 
L 2384 0 
z
" transform="scale(0.015625)"/>
       </defs>
       <use xlink:href="#ArialMT-31"/>
       <use xlink:href="#ArialMT-30" x="55.615234"/>
      </g>
     </g>
    </g>
    <g id="text_12">
     <!-- Average Memory (MB) -->
     <g style="fill: #262626" transform="translate(21.645312 266.035313) rotate(-90) scale(0.12 -0.12)">
      <defs>
       <path id="ArialMT-41" d="M -9 0 
L 1750 4581 
L 2403 4581 
L 4278 0 
L 3588 0 
L 3053 1388 
L 1138 1388 
L 634 0 
L -9 0 
z
M 1313 1881 
L 2866 1881 
L 2388 3150 
Q 2169 3728 2063 4100 
Q 1975 3659 1816 3225 
L 1313 1881 
z
" transform="scale(0.015625)"/>
       <path id="ArialMT-76" d="M 1344 0 
L 81 3319 
L 675 3319 
L 1388 1331 
Q 1503 1009 1600 663 
Q 1675 925 1809 1294 
L 2547 3319 
L 3125 3319 
L 1869 0 
L 1344 0 
z
" transform="scale(0.015625)"/>
       <path id="ArialMT-67" d="M 319 -275 
L 866 -356 
Q 900 -609 1056 -725 
Q 1266 -881 1628 -881 
Q 2019 -881 2231 -725 
Q 2444 -569 2519 -288 
Q 2563 -116 2559 434 
Q 2191 0 1641 0 
Q 956 0 581 494 
Q 206 988 206 1678 
Q 206 2153 378 2554 
Q 550 2956 876 3175 
Q 1203 3394 1644 3394 
Q 2231 3394 2613 2919 
L 2613 3319 
L 3131 3319 
L 3131 450 
Q 3131 -325 2973 -648 
Q 2816 -972 2473 -1159 
Q 2131 -1347 1631 -1347 
Q 1038 -1347 672 -1080 
Q 306 -813 319 -275 
z
M 784 1719 
Q 784 1066 1043 766 
Q 1303 466 1694 466 
Q 2081 466 2343 764 
Q 2606 1063 2606 1700 
Q 2606 2309 2336 2618 
Q 2066 2928 1684 2928 
Q 1309 2928 1046 2623 
Q 784 2319 784 1719 
z
" transform="scale(0.015625)"/>
       <path id="ArialMT-20" transform="scale(0.015625)"/>
       <path id="ArialMT-6d" d="M 422 0 
L 422 3319 
L 925 3319 
L 925 2853 
Q 1081 3097 1340 3245 
Q 1600 3394 1931 3394 
Q 2300 3394 2536 3241 
Q 2772 3088 2869 2813 
Q 3263 3394 3894 3394 
Q 4388 3394 4653 3120 
Q 4919 2847 4919 2278 
L 4919 0 
L 4359 0 
L 4359 2091 
Q 4359 2428 4304 2576 
Q 4250 2725 4106 2815 
Q 3963 2906 3769 2906 
Q 3419 2906 3187 2673 
Q 2956 2441 2956 1928 
L 2956 0 
L 2394 0 
L 2394 2156 
Q 2394 2531 2256 2718 
Q 2119 2906 1806 2906 
Q 1569 2906 1367 2781 
Q 1166 2656 1075 2415 
Q 984 2175 984 1722 
L 984 0 
L 422 0 
z
" transform="scale(0.015625)"/>
       <path id="ArialMT-79" d="M 397 -1278 
L 334 -750 
Q 519 -800 656 -800 
Q 844 -800 956 -737 
Q 1069 -675 1141 -563 
Q 1194 -478 1313 -144 
Q 1328 -97 1363 -6 
L 103 3319 
L 709 3319 
L 1400 1397 
Q 1534 1031 1641 628 
Q 1738 1016 1872 1384 
L 2581 3319 
L 3144 3319 
L 1881 -56 
Q 1678 -603 1566 -809 
Q 1416 -1088 1222 -1217 
Q 1028 -1347 759 -1347 
Q 597 -1347 397 -1278 
z
" transform="scale(0.015625)"/>
       <path id="ArialMT-28" d="M 1497 -1347 
Q 1031 -759 709 28 
Q 388 816 388 1659 
Q 388 2403 628 3084 
Q 909 3875 1497 4659 
L 1900 4659 
Q 1522 4009 1400 3731 
Q 1209 3300 1100 2831 
Q 966 2247 966 1656 
Q 966 153 1900 -1347 
L 1497 -1347 
z
" transform="scale(0.015625)"/>
       <path id="ArialMT-42" d="M 469 0 
L 469 4581 
L 2188 4581 
Q 2713 4581 3030 4442 
Q 3347 4303 3526 4014 
Q 3706 3725 3706 3409 
Q 3706 3116 3547 2856 
Q 3388 2597 3066 2438 
Q 3481 2316 3704 2022 
Q 3928 1728 3928 1328 
Q 3928 1006 3792 729 
Q 3656 453 3456 303 
Q 3256 153 2954 76 
Q 2653 0 2216 0 
L 469 0 
z
M 1075 2656 
L 2066 2656 
Q 2469 2656 2644 2709 
Q 2875 2778 2992 2937 
Q 3109 3097 3109 3338 
Q 3109 3566 3000 3739 
Q 2891 3913 2687 3977 
Q 2484 4041 1991 4041 
L 1075 4041 
L 1075 2656 
z
M 1075 541 
L 2216 541 
Q 2509 541 2628 563 
Q 2838 600 2978 687 
Q 3119 775 3209 942 
Q 3300 1109 3300 1328 
Q 3300 1584 3169 1773 
Q 3038 1963 2805 2039 
Q 2572 2116 2134 2116 
L 1075 2116 
L 1075 541 
z
" transform="scale(0.015625)"/>
       <path id="ArialMT-29" d="M 791 -1347 
L 388 -1347 
Q 1322 153 1322 1656 
Q 1322 2244 1188 2822 
Q 1081 3291 891 3722 
Q 769 4003 388 4659 
L 791 4659 
Q 1378 3875 1659 3084 
Q 1900 2403 1900 1659 
Q 1900 816 1576 28 
Q 1253 -759 791 -1347 
z
" transform="scale(0.015625)"/>
      </defs>
      <use xlink:href="#ArialMT-41"/>
      <use xlink:href="#ArialMT-76" x="64.949219"/>
      <use xlink:href="#ArialMT-65" x="114.949219"/>
      <use xlink:href="#ArialMT-72" x="170.564453"/>
      <use xlink:href="#ArialMT-61" x="203.865234"/>
      <use xlink:href="#ArialMT-67" x="259.480469"/>
      <use xlink:href="#ArialMT-65" x="315.095703"/>
      <use xlink:href="#ArialMT-20" x="370.710938"/>
      <use xlink:href="#ArialMT-4d" x="398.494141"/>
      <use xlink:href="#ArialMT-65" x="481.794922"/>
      <use xlink:href="#ArialMT-6d" x="537.410156"/>
      <use xlink:href="#ArialMT-6f" x="620.710938"/>
      <use xlink:href="#ArialMT-72" x="676.326172"/>
      <use xlink:href="#ArialMT-79" x="709.626953"/>
      <use xlink:href="#ArialMT-20" x="759.626953"/>
      <use xlink:href="#ArialMT-28" x="787.410156"/>
      <use xlink:href="#ArialMT-4d" x="820.710938"/>
      <use xlink:href="#ArialMT-42" x="904.011719"/>
      <use xlink:href="#ArialMT-29" x="970.710938"/>
     </g>
    </g>
   </g>
   <g id="patch_3">
    <path d="M 66.957187 383.94 
L 112.429687 383.94 
L 112.429687 258.734333 
L 66.957187 258.734333 
z
" clip-path="url(#p3917278c6e)" style="fill: #5875a4; stroke: #ffffff; stroke-linejoin: miter"/>
   </g>
   <g id="patch_4">
    <path d="M 237.479062 383.94 
L 282.951563 383.94 
L 282.951563 297.752829 
L 237.479062 297.752829 
z
" clip-path="url(#p3917278c6e)" style="fill: #5875a4; stroke: #ffffff; stroke-linejoin: miter"/>
   </g>
   <g id="patch_5">
    <path d="M 408.000938 383.94 
L 453.473438 383.94 
L 453.473438 299.524607 
L 408.000938 299.524607 
z
" clip-path="url(#p3917278c6e)" style="fill: #5875a4; stroke: #ffffff; stroke-linejoin: miter"/>
   </g>
   <g id="patch_6">
    <path d="M 578.522813 383.94 
L 623.995313 383.94 
L 623.995313 294.668622 
L 578.522813 294.668622 
z
" clip-path="url(#p3917278c6e)" style="fill: #5875a4; stroke: #ffffff; stroke-linejoin: miter"/>
   </g>
   <g id="patch_7">
    <path d="M 112.429687 383.94 
L 157.902187 383.94 
L 157.902187 252.47405 
L 112.429687 252.47405 
z
" clip-path="url(#p3917278c6e)" style="fill: #cc8963; stroke: #ffffff; stroke-linejoin: miter"/>
   </g>
   <g id="patch_8">
    <path d="M 282.951563 383.94 
L 328.424062 383.94 
L 328.424062 288.001486 
L 282.951563 288.001486 
z
" clip-path="url(#p3917278c6e)" style="fill: #cc8963; stroke: #ffffff; stroke-linejoin: miter"/>
   </g>
   <g id="patch_9">
    <path d="M 453.473438 383.94 
L 498.945938 383.94 
L 498.945938 277.803917 
L 453.473438 277.803917 
z
" clip-path="url(#p3917278c6e)" style="fill: #cc8963; stroke: #ffffff; stroke-linejoin: miter"/>
   </g>
   <g id="patch_10">
    <path d="M 623.995313 383.94 
L 669.467813 383.94 
L 669.467813 278.460131 
L 623.995313 278.460131 
z
" clip-path="url(#p3917278c6e)" style="fill: #cc8963; stroke: #ffffff; stroke-linejoin: miter"/>
   </g>
   <g id="patch_11">
    <path d="M 157.902187 383.94 
L 203.374687 383.94 
L 203.374687 84.391348 
L 157.902187 84.391348 
z
" clip-path="url(#p3917278c6e)" style="fill: #5f9e6e; stroke: #ffffff; stroke-linejoin: miter"/>
   </g>
   <g id="patch_12">
    <path d="M 328.424062 383.94 
L 373.896562 383.94 
L 373.896562 111.230508 
L 328.424062 111.230508 
z
" clip-path="url(#p3917278c6e)" style="fill: #5f9e6e; stroke: #ffffff; stroke-linejoin: miter"/>
   </g>
   <g id="patch_13">
    <path d="M 498.945938 383.94 
L 544.418437 383.94 
L 544.418437 123.711702 
L 498.945938 123.711702 
z
" clip-path="url(#p3917278c6e)" style="fill: #5f9e6e; stroke: #ffffff; stroke-linejoin: miter"/>
   </g>
   <g id="patch_14">
    <path d="M 669.467813 383.94 
L 714.940313 383.94 
L 714.940313 132.924949 
L 669.467813 132.924949 
z
" clip-path="url(#p3917278c6e)" style="fill: #5f9e6e; stroke: #ffffff; stroke-linejoin: miter"/>
   </g>
   <g id="patch_15">
    <path d="M 135.165937 383.94 
L 135.165937 383.94 
L 135.165937 383.94 
L 135.165937 383.94 
z
" clip-path="url(#p3917278c6e)" style="fill: #5875a4; stroke: #ffffff; stroke-linejoin: miter"/>
   </g>
   <g id="patch_16">
    <path d="M 135.165937 383.94 
L 135.165937 383.94 
L 135.165937 383.94 
L 135.165937 383.94 
z
" clip-path="url(#p3917278c6e)" style="fill: #cc8963; stroke: #ffffff; stroke-linejoin: miter"/>
   </g>
   <g id="patch_17">
    <path d="M 135.165937 383.94 
L 135.165937 383.94 
L 135.165937 383.94 
L 135.165937 383.94 
z
" clip-path="url(#p3917278c6e)" style="fill: #5f9e6e; stroke: #ffffff; stroke-linejoin: miter"/>
   </g>
   <g id="line2d_7">
    <path d="M 89.693437 270.822126 
L 89.693437 244.651648 
" clip-path="url(#p3917278c6e)" style="fill: none; stroke: #424242; stroke-width: 2.25; stroke-linecap: round"/>
   </g>
   <g id="line2d_8">
    <path d="M 260.215312 306.074281 
L 260.215312 287.894851 
" clip-path="url(#p3917278c6e)" style="fill: none; stroke: #424242; stroke-width: 2.25; stroke-linecap: round"/>
   </g>
   <g id="line2d_9">
    <path d="M 430.737188 306.88733 
L 430.737188 292.461445 
" clip-path="url(#p3917278c6e)" style="fill: none; stroke: #424242; stroke-width: 2.25; stroke-linecap: round"/>
   </g>
   <g id="line2d_10">
    <path d="M 601.259063 301.064742 
L 601.259063 287.632693 
" clip-path="url(#p3917278c6e)" style="fill: none; stroke: #424242; stroke-width: 2.25; stroke-linecap: round"/>
   </g>
   <g id="line2d_11">
    <path d="M 135.165937 260.06087 
L 135.165937 244.651976 
" clip-path="url(#p3917278c6e)" style="fill: none; stroke: #424242; stroke-width: 2.25; stroke-linecap: round"/>
   </g>
   <g id="line2d_12">
    <path d="M 305.687813 293.47464 
L 305.687813 282.988009 
" clip-path="url(#p3917278c6e)" style="fill: none; stroke: #424242; stroke-width: 2.25; stroke-linecap: round"/>
   </g>
   <g id="line2d_13">
    <path d="M 476.209688 285.652239 
L 476.209688 269.768575 
" clip-path="url(#p3917278c6e)" style="fill: none; stroke: #424242; stroke-width: 2.25; stroke-linecap: round"/>
   </g>
   <g id="line2d_14">
    <path d="M 646.731563 286.96762 
L 646.731563 269.978235 
" clip-path="url(#p3917278c6e)" style="fill: none; stroke: #424242; stroke-width: 2.25; stroke-linecap: round"/>
   </g>
   <g id="line2d_15">
    <path d="M 180.638437 91.743243 
L 180.638437 77.027312 
" clip-path="url(#p3917278c6e)" style="fill: none; stroke: #424242; stroke-width: 2.25; stroke-linecap: round"/>
   </g>
   <g id="line2d_16">
    <path d="M 351.160313 121.324066 
L 351.160313 100.570965 
" clip-path="url(#p3917278c6e)" style="fill: none; stroke: #424242; stroke-width: 2.25; stroke-linecap: round"/>
   </g>
   <g id="line2d_17">
    <path d="M 521.682188 134.146163 
L 521.682188 113.656532 
" clip-path="url(#p3917278c6e)" style="fill: none; stroke: #424242; stroke-width: 2.25; stroke-linecap: round"/>
   </g>
   <g id="line2d_18">
    <path d="M 692.204062 139.632114 
L 692.204062 125.626863 
" clip-path="url(#p3917278c6e)" style="fill: none; stroke: #424242; stroke-width: 2.25; stroke-linecap: round"/>
   </g>
   <g id="patch_18">
    <path d="M 49.905 383.94 
L 49.905 27.65625 
" style="fill: none; stroke: #cccccc; stroke-width: 1.25; stroke-linejoin: miter; stroke-linecap: square"/>
   </g>
   <g id="patch_19">
    <path d="M 731.9925 383.94 
L 731.9925 27.65625 
" style="fill: none; stroke: #cccccc; stroke-width: 1.25; stroke-linejoin: miter; stroke-linecap: square"/>
   </g>
   <g id="patch_20">
    <path d="M 49.905 383.94 
L 731.9925 383.94 
" style="fill: none; stroke: #cccccc; stroke-width: 1.25; stroke-linejoin: miter; stroke-linecap: square"/>
   </g>
   <g id="patch_21">
    <path d="M 49.905 27.65625 
L 731.9925 27.65625 
" style="fill: none; stroke: #cccccc; stroke-width: 1.25; stroke-linejoin: miter; stroke-linecap: square"/>
   </g>
   <g id="text_13">
    <!-- Average by 10 runs -->
    <g style="fill: #808080" transform="translate(647.287875 23.436487) scale(0.09 -0.09)">
     <defs>
      <path id="ArialMT-62" d="M 941 0 
L 419 0 
L 419 4581 
L 981 4581 
L 981 2947 
Q 1338 3394 1891 3394 
Q 2197 3394 2470 3270 
Q 2744 3147 2920 2923 
Q 3097 2700 3197 2384 
Q 3297 2069 3297 1709 
Q 3297 856 2875 390 
Q 2453 -75 1863 -75 
Q 1275 -75 941 416 
L 941 0 
z
M 934 1684 
Q 934 1088 1097 822 
Q 1363 388 1816 388 
Q 2184 388 2453 708 
Q 2722 1028 2722 1663 
Q 2722 2313 2464 2622 
Q 2206 2931 1841 2931 
Q 1472 2931 1203 2611 
Q 934 2291 934 1684 
z
" transform="scale(0.015625)"/>
      <path id="ArialMT-75" d="M 2597 0 
L 2597 488 
Q 2209 -75 1544 -75 
Q 1250 -75 995 37 
Q 741 150 617 320 
Q 494 491 444 738 
Q 409 903 409 1263 
L 409 3319 
L 972 3319 
L 972 1478 
Q 972 1038 1006 884 
Q 1059 663 1231 536 
Q 1403 409 1656 409 
Q 1909 409 2131 539 
Q 2353 669 2445 892 
Q 2538 1116 2538 1541 
L 2538 3319 
L 3100 3319 
L 3100 0 
L 2597 0 
z
" transform="scale(0.015625)"/>
      <path id="ArialMT-6e" d="M 422 0 
L 422 3319 
L 928 3319 
L 928 2847 
Q 1294 3394 1984 3394 
Q 2284 3394 2536 3286 
Q 2788 3178 2913 3003 
Q 3038 2828 3088 2588 
Q 3119 2431 3119 2041 
L 3119 0 
L 2556 0 
L 2556 2019 
Q 2556 2363 2490 2533 
Q 2425 2703 2258 2804 
Q 2091 2906 1866 2906 
Q 1506 2906 1245 2678 
Q 984 2450 984 1813 
L 984 0 
L 422 0 
z
" transform="scale(0.015625)"/>
     </defs>
     <use xlink:href="#ArialMT-41"/>
     <use xlink:href="#ArialMT-76" x="64.949219"/>
     <use xlink:href="#ArialMT-65" x="114.949219"/>
     <use xlink:href="#ArialMT-72" x="170.564453"/>
     <use xlink:href="#ArialMT-61" x="203.865234"/>
     <use xlink:href="#ArialMT-67" x="259.480469"/>
     <use xlink:href="#ArialMT-65" x="315.095703"/>
     <use xlink:href="#ArialMT-20" x="370.710938"/>
     <use xlink:href="#ArialMT-62" x="398.494141"/>
     <use xlink:href="#ArialMT-79" x="454.109375"/>
     <use xlink:href="#ArialMT-20" x="504.109375"/>
     <use xlink:href="#ArialMT-31" x="531.892578"/>
     <use xlink:href="#ArialMT-30" x="587.507812"/>
     <use xlink:href="#ArialMT-20" x="643.123047"/>
     <use xlink:href="#ArialMT-72" x="670.90625"/>
     <use xlink:href="#ArialMT-75" x="704.207031"/>
     <use xlink:href="#ArialMT-6e" x="759.822266"/>
     <use xlink:href="#ArialMT-73" x="815.4375"/>
    </g>
   </g>
   <g id="text_14">
    <!-- Average Memory - Not Batched -->
    <g style="fill: #262626" transform="translate(307.02375 21.65625) scale(0.12 -0.12)">
     <defs>
      <path id="ArialMT-2d" d="M 203 1375 
L 203 1941 
L 1931 1941 
L 1931 1375 
L 203 1375 
z
" transform="scale(0.015625)"/>
      <path id="ArialMT-4e" d="M 488 0 
L 488 4581 
L 1109 4581 
L 3516 984 
L 3516 4581 
L 4097 4581 
L 4097 0 
L 3475 0 
L 1069 3600 
L 1069 0 
L 488 0 
z
" transform="scale(0.015625)"/>
     </defs>
     <use xlink:href="#ArialMT-41"/>
     <use xlink:href="#ArialMT-76" x="64.949219"/>
     <use xlink:href="#ArialMT-65" x="114.949219"/>
     <use xlink:href="#ArialMT-72" x="170.564453"/>
     <use xlink:href="#ArialMT-61" x="203.865234"/>
     <use xlink:href="#ArialMT-67" x="259.480469"/>
     <use xlink:href="#ArialMT-65" x="315.095703"/>
     <use xlink:href="#ArialMT-20" x="370.710938"/>
     <use xlink:href="#ArialMT-4d" x="398.494141"/>
     <use xlink:href="#ArialMT-65" x="481.794922"/>
     <use xlink:href="#ArialMT-6d" x="537.410156"/>
     <use xlink:href="#ArialMT-6f" x="620.710938"/>
     <use xlink:href="#ArialMT-72" x="676.326172"/>
     <use xlink:href="#ArialMT-79" x="709.626953"/>
     <use xlink:href="#ArialMT-20" x="759.626953"/>
     <use xlink:href="#ArialMT-2d" x="787.410156"/>
     <use xlink:href="#ArialMT-20" x="820.710938"/>
     <use xlink:href="#ArialMT-4e" x="848.494141"/>
     <use xlink:href="#ArialMT-6f" x="920.710938"/>
     <use xlink:href="#ArialMT-74" x="976.326172"/>
     <use xlink:href="#ArialMT-20" x="1004.109375"/>
     <use xlink:href="#ArialMT-42" x="1031.892578"/>
     <use xlink:href="#ArialMT-61" x="1098.591797"/>
     <use xlink:href="#ArialMT-74" x="1154.207031"/>
     <use xlink:href="#ArialMT-63" x="1181.990234"/>
     <use xlink:href="#ArialMT-68" x="1231.990234"/>
     <use xlink:href="#ArialMT-65" x="1287.605469"/>
     <use xlink:href="#ArialMT-64" x="1343.220703"/>
    </g>
   </g>
   <g id="legend_1">
    <g id="patch_22">
     <path d="M 57.605 100.405625 
L 143.563125 100.405625 
Q 145.763125 100.405625 145.763125 98.205625 
L 145.763125 35.35625 
Q 145.763125 33.15625 143.563125 33.15625 
L 57.605 33.15625 
Q 55.405 33.15625 55.405 35.35625 
L 55.405 98.205625 
Q 55.405 100.405625 57.605 100.405625 
z
" style="fill: #ffffff; opacity: 0.8; stroke: #cccccc; stroke-linejoin: miter"/>
    </g>
    <g id="text_15">
     <!-- Library -->
     <g style="fill: #262626" transform="translate(82.245625 46.145625) scale(0.12 -0.12)">
      <defs>
       <path id="ArialMT-4c" d="M 469 0 
L 469 4581 
L 1075 4581 
L 1075 541 
L 3331 541 
L 3331 0 
L 469 0 
z
" transform="scale(0.015625)"/>
       <path id="ArialMT-69" d="M 425 3934 
L 425 4581 
L 988 4581 
L 988 3934 
L 425 3934 
z
M 425 0 
L 425 3319 
L 988 3319 
L 988 0 
L 425 0 
z
" transform="scale(0.015625)"/>
      </defs>
      <use xlink:href="#ArialMT-4c"/>
      <use xlink:href="#ArialMT-69" x="55.615234"/>
      <use xlink:href="#ArialMT-62" x="77.832031"/>
      <use xlink:href="#ArialMT-72" x="133.447266"/>
      <use xlink:href="#ArialMT-61" x="166.748047"/>
      <use xlink:href="#ArialMT-72" x="222.363281"/>
      <use xlink:href="#ArialMT-79" x="255.664062"/>
     </g>
    </g>
    <g id="patch_23">
     <path d="M 59.805 62.178906 
L 81.805 62.178906 
L 81.805 54.478906 
L 59.805 54.478906 
z
" style="fill: #5875a4; stroke: #ffffff; stroke-linejoin: miter"/>
    </g>
    <g id="text_16">
     <!-- fast-aug -->
     <g style="fill: #262626" transform="translate(90.605 62.178906) scale(0.11 -0.11)">
      <defs>
       <path id="ArialMT-66" d="M 556 0 
L 556 2881 
L 59 2881 
L 59 3319 
L 556 3319 
L 556 3672 
Q 556 4006 616 4169 
Q 697 4388 901 4523 
Q 1106 4659 1475 4659 
Q 1713 4659 2000 4603 
L 1916 4113 
Q 1741 4144 1584 4144 
Q 1328 4144 1222 4034 
Q 1116 3925 1116 3625 
L 1116 3319 
L 1763 3319 
L 1763 2881 
L 1116 2881 
L 1116 0 
L 556 0 
z
" transform="scale(0.015625)"/>
      </defs>
      <use xlink:href="#ArialMT-66"/>
      <use xlink:href="#ArialMT-61" x="27.783203"/>
      <use xlink:href="#ArialMT-73" x="83.398438"/>
      <use xlink:href="#ArialMT-74" x="133.398438"/>
      <use xlink:href="#ArialMT-2d" x="161.181641"/>
      <use xlink:href="#ArialMT-61" x="194.482422"/>
      <use xlink:href="#ArialMT-75" x="250.097656"/>
      <use xlink:href="#ArialMT-67" x="305.712891"/>
     </g>
    </g>
    <g id="patch_24">
     <path d="M 59.805 78.001719 
L 81.805 78.001719 
L 81.805 70.301719 
L 59.805 70.301719 
z
" style="fill: #cc8963; stroke: #ffffff; stroke-linejoin: miter"/>
    </g>
    <g id="text_17">
     <!-- fastnlpaug -->
     <g style="fill: #262626" transform="translate(90.605 78.001719) scale(0.11 -0.11)">
      <use xlink:href="#ArialMT-66"/>
      <use xlink:href="#ArialMT-61" x="27.783203"/>
      <use xlink:href="#ArialMT-73" x="83.398438"/>
      <use xlink:href="#ArialMT-74" x="133.398438"/>
      <use xlink:href="#ArialMT-6e" x="161.181641"/>
      <use xlink:href="#ArialMT-6c" x="216.796875"/>
      <use xlink:href="#ArialMT-70" x="239.013672"/>
      <use xlink:href="#ArialMT-61" x="294.628906"/>
      <use xlink:href="#ArialMT-75" x="350.244141"/>
      <use xlink:href="#ArialMT-67" x="405.859375"/>
     </g>
    </g>
    <g id="patch_25">
     <path d="M 59.805 93.690469 
L 81.805 93.690469 
L 81.805 85.990469 
L 59.805 85.990469 
z
" style="fill: #5f9e6e; stroke: #ffffff; stroke-linejoin: miter"/>
    </g>
    <g id="text_18">
     <!-- nlpaug -->
     <g style="fill: #262626" transform="translate(90.605 93.690469) scale(0.11 -0.11)">
      <use xlink:href="#ArialMT-6e"/>
      <use xlink:href="#ArialMT-6c" x="55.615234"/>
      <use xlink:href="#ArialMT-70" x="77.832031"/>
      <use xlink:href="#ArialMT-61" x="133.447266"/>
      <use xlink:href="#ArialMT-75" x="189.0625"/>
      <use xlink:href="#ArialMT-67" x="244.677734"/>
     </g>
    </g>
   </g>
  </g>
  <g id="axes_2">
   <g id="patch_26">
    <path d="M 744.9525 383.94 
L 1427.04 383.94 
L 1427.04 27.65625 
L 744.9525 27.65625 
z
" style="fill: #ffffff"/>
   </g>
   <g id="matplotlib.axis_3">
    <g id="xtick_5">
     <g id="text_19">
      <!-- words_swap -->
      <g style="fill: #262626" transform="translate(799.645469 401.313594) scale(0.11 -0.11)">
       <use xlink:href="#ArialMT-77"/>
       <use xlink:href="#ArialMT-6f" x="72.216797"/>
       <use xlink:href="#ArialMT-72" x="127.832031"/>
       <use xlink:href="#ArialMT-64" x="161.132812"/>
       <use xlink:href="#ArialMT-73" x="216.748047"/>
       <use xlink:href="#ArialMT-5f" x="266.748047"/>
       <use xlink:href="#ArialMT-73" x="322.363281"/>
       <use xlink:href="#ArialMT-77" x="372.363281"/>
       <use xlink:href="#ArialMT-61" x="444.580078"/>
       <use xlink:href="#ArialMT-70" x="500.195312"/>
      </g>
     </g>
    </g>
    <g id="xtick_6">
     <g id="text_20">
      <!-- words_delete -->
      <g style="fill: #262626" transform="translate(968.022344 401.313594) scale(0.11 -0.11)">
       <use xlink:href="#ArialMT-77"/>
       <use xlink:href="#ArialMT-6f" x="72.216797"/>
       <use xlink:href="#ArialMT-72" x="127.832031"/>
       <use xlink:href="#ArialMT-64" x="161.132812"/>
       <use xlink:href="#ArialMT-73" x="216.748047"/>
       <use xlink:href="#ArialMT-5f" x="266.748047"/>
       <use xlink:href="#ArialMT-64" x="322.363281"/>
       <use xlink:href="#ArialMT-65" x="377.978516"/>
       <use xlink:href="#ArialMT-6c" x="433.59375"/>
       <use xlink:href="#ArialMT-65" x="455.810547"/>
       <use xlink:href="#ArialMT-74" x="511.425781"/>
       <use xlink:href="#ArialMT-65" x="539.208984"/>
      </g>
     </g>
    </g>
    <g id="xtick_7">
     <g id="text_21">
      <!-- chars_swap -->
      <g style="fill: #262626" transform="translate(1141.91125 401.313594) scale(0.11 -0.11)">
       <use xlink:href="#ArialMT-63"/>
       <use xlink:href="#ArialMT-68" x="50"/>
       <use xlink:href="#ArialMT-61" x="105.615234"/>
       <use xlink:href="#ArialMT-72" x="161.230469"/>
       <use xlink:href="#ArialMT-73" x="194.53125"/>
       <use xlink:href="#ArialMT-5f" x="244.53125"/>
       <use xlink:href="#ArialMT-73" x="300.146484"/>
       <use xlink:href="#ArialMT-77" x="350.146484"/>
       <use xlink:href="#ArialMT-61" x="422.363281"/>
       <use xlink:href="#ArialMT-70" x="477.978516"/>
      </g>
     </g>
    </g>
    <g id="xtick_8">
     <g id="text_22">
      <!-- chars_delete -->
      <g style="fill: #262626" transform="translate(1310.288125 401.313594) scale(0.11 -0.11)">
       <use xlink:href="#ArialMT-63"/>
       <use xlink:href="#ArialMT-68" x="50"/>
       <use xlink:href="#ArialMT-61" x="105.615234"/>
       <use xlink:href="#ArialMT-72" x="161.230469"/>
       <use xlink:href="#ArialMT-73" x="194.53125"/>
       <use xlink:href="#ArialMT-5f" x="244.53125"/>
       <use xlink:href="#ArialMT-64" x="300.146484"/>
       <use xlink:href="#ArialMT-65" x="355.761719"/>
       <use xlink:href="#ArialMT-6c" x="411.376953"/>
       <use xlink:href="#ArialMT-65" x="433.59375"/>
       <use xlink:href="#ArialMT-74" x="489.208984"/>
       <use xlink:href="#ArialMT-65" x="516.992188"/>
      </g>
     </g>
    </g>
    <g id="text_23">
     <!-- Method -->
     <g style="fill: #262626" transform="translate(1065.985312 416.089219) scale(0.12 -0.12)">
      <use xlink:href="#ArialMT-4d"/>
      <use xlink:href="#ArialMT-65" x="83.300781"/>
      <use xlink:href="#ArialMT-74" x="138.916016"/>
      <use xlink:href="#ArialMT-68" x="166.699219"/>
      <use xlink:href="#ArialMT-6f" x="222.314453"/>
      <use xlink:href="#ArialMT-64" x="277.929688"/>
     </g>
    </g>
   </g>
   <g id="matplotlib.axis_4">
    <g id="ytick_7">
     <g id="line2d_19">
      <path d="M 744.9525 383.94 
L 1427.04 383.94 
" clip-path="url(#pcf437e8f90)" style="fill: none; stroke: #cccccc; stroke-linecap: round"/>
     </g>
    </g>
    <g id="ytick_8">
     <g id="line2d_20">
      <path d="M 744.9525 316.743667 
L 1427.04 316.743667 
" clip-path="url(#pcf437e8f90)" style="fill: none; stroke: #cccccc; stroke-linecap: round"/>
     </g>
    </g>
    <g id="ytick_9">
     <g id="line2d_21">
      <path d="M 744.9525 249.547334 
L 1427.04 249.547334 
" clip-path="url(#pcf437e8f90)" style="fill: none; stroke: #cccccc; stroke-linecap: round"/>
     </g>
    </g>
    <g id="ytick_10">
     <g id="line2d_22">
      <path d="M 744.9525 182.351001 
L 1427.04 182.351001 
" clip-path="url(#pcf437e8f90)" style="fill: none; stroke: #cccccc; stroke-linecap: round"/>
     </g>
    </g>
    <g id="ytick_11">
     <g id="line2d_23">
      <path d="M 744.9525 115.154669 
L 1427.04 115.154669 
" clip-path="url(#pcf437e8f90)" style="fill: none; stroke: #cccccc; stroke-linecap: round"/>
     </g>
    </g>
    <g id="ytick_12">
     <g id="line2d_24">
      <path d="M 744.9525 47.958336 
L 1427.04 47.958336 
" clip-path="url(#pcf437e8f90)" style="fill: none; stroke: #cccccc; stroke-linecap: round"/>
     </g>
    </g>
   </g>
   <g id="patch_27">
    <path d="M 807.477187 383.94 
L 852.949687 383.94 
L 852.949687 179.188049 
L 807.477187 179.188049 
z
" clip-path="url(#pcf437e8f90)" style="fill: #cc8963; stroke: #ffffff; stroke-linejoin: miter"/>
   </g>
   <g id="patch_28">
    <path d="M 977.999062 383.94 
L 1023.471562 383.94 
L 1023.471562 206.210949 
L 977.999062 206.210949 
z
" clip-path="url(#pcf437e8f90)" style="fill: #cc8963; stroke: #ffffff; stroke-linejoin: miter"/>
   </g>
   <g id="patch_29">
    <path d="M 1148.520937 383.94 
L 1193.993438 383.94 
L 1193.993438 204.18981 
L 1148.520937 204.18981 
z
" clip-path="url(#pcf437e8f90)" style="fill: #cc8963; stroke: #ffffff; stroke-linejoin: miter"/>
   </g>
   <g id="patch_30">
    <path d="M 1319.042812 383.94 
L 1364.515312 383.94 
L 1364.515312 198.979469 
L 1319.042812 198.979469 
z
" clip-path="url(#pcf437e8f90)" style="fill: #cc8963; stroke: #ffffff; stroke-linejoin: miter"/>
   </g>
   <g id="patch_31">
    <path d="M 852.949687 383.94 
L 898.422187 383.94 
L 898.422187 54.612348 
L 852.949687 54.612348 
z
" clip-path="url(#pcf437e8f90)" style="fill: #5f9e6e; stroke: #ffffff; stroke-linejoin: miter"/>
   </g>
   <g id="patch_32">
    <path d="M 1023.471562 383.94 
L 1068.944062 383.94 
L 1068.944062 84.378223 
L 1023.471562 84.378223 
z
" clip-path="url(#pcf437e8f90)" style="fill: #5f9e6e; stroke: #ffffff; stroke-linejoin: miter"/>
   </g>
   <g id="patch_33">
    <path d="M 1193.993437 383.94 
L 1239.465937 383.94 
L 1239.465937 120.942478 
L 1193.993437 120.942478 
z
" clip-path="url(#pcf437e8f90)" style="fill: #5f9e6e; stroke: #ffffff; stroke-linejoin: miter"/>
   </g>
   <g id="patch_34">
    <path d="M 1364.515312 383.94 
L 1409.987813 383.94 
L 1409.987813 121.677438 
L 1364.515312 121.677438 
z
" clip-path="url(#pcf437e8f90)" style="fill: #5f9e6e; stroke: #ffffff; stroke-linejoin: miter"/>
   </g>
   <g id="patch_35">
    <path d="M 830.213437 383.94 
L 830.213437 383.94 
L 830.213437 383.94 
L 830.213437 383.94 
z
" clip-path="url(#pcf437e8f90)" style="fill: #5875a4; stroke: #ffffff; stroke-linejoin: miter"/>
   </g>
   <g id="patch_36">
    <path d="M 830.213437 383.94 
L 830.213437 383.94 
L 830.213437 383.94 
L 830.213437 383.94 
z
" clip-path="url(#pcf437e8f90)" style="fill: #cc8963; stroke: #ffffff; stroke-linejoin: miter"/>
   </g>
   <g id="patch_37">
    <path d="M 830.213437 383.94 
L 830.213437 383.94 
L 830.213437 383.94 
L 830.213437 383.94 
z
" clip-path="url(#pcf437e8f90)" style="fill: #5f9e6e; stroke: #ffffff; stroke-linejoin: miter"/>
   </g>
   <g id="line2d_25">
    <path d="M 830.213437 190.14781 
L 830.213437 168.491102 
" clip-path="url(#pcf437e8f90)" style="fill: none; stroke: #424242; stroke-width: 2.25; stroke-linecap: round"/>
   </g>
   <g id="line2d_26">
    <path d="M 1000.735312 214.80834 
L 1000.735312 197.561718 
" clip-path="url(#pcf437e8f90)" style="fill: none; stroke: #424242; stroke-width: 2.25; stroke-linecap: round"/>
   </g>
   <g id="line2d_27">
    <path d="M 1171.257187 214.485482 
L 1171.257187 195.094353 
" clip-path="url(#pcf437e8f90)" style="fill: none; stroke: #424242; stroke-width: 2.25; stroke-linecap: round"/>
   </g>
   <g id="line2d_28">
    <path d="M 1341.779062 210.687971 
L 1341.779062 187.540671 
" clip-path="url(#pcf437e8f90)" style="fill: none; stroke: #424242; stroke-width: 2.25; stroke-linecap: round"/>
   </g>
   <g id="line2d_29">
    <path d="M 875.685937 66.137109 
L 875.685937 44.622143 
" clip-path="url(#pcf437e8f90)" style="fill: none; stroke: #424242; stroke-width: 2.25; stroke-linecap: round"/>
   </g>
   <g id="line2d_30">
    <path d="M 1046.207812 95.487929 
L 1046.207812 72.970268 
" clip-path="url(#pcf437e8f90)" style="fill: none; stroke: #424242; stroke-width: 2.25; stroke-linecap: round"/>
   </g>
   <g id="line2d_31">
    <path d="M 1216.729687 125.405062 
L 1216.729687 116.401476 
" clip-path="url(#pcf437e8f90)" style="fill: none; stroke: #424242; stroke-width: 2.25; stroke-linecap: round"/>
   </g>
   <g id="line2d_32">
    <path d="M 1387.251562 126.534407 
L 1387.251562 115.940813 
" clip-path="url(#pcf437e8f90)" style="fill: none; stroke: #424242; stroke-width: 2.25; stroke-linecap: round"/>
   </g>
   <g id="patch_38">
    <path d="M 744.9525 383.94 
L 744.9525 27.65625 
" style="fill: none; stroke: #cccccc; stroke-width: 1.25; stroke-linejoin: miter; stroke-linecap: square"/>
   </g>
   <g id="patch_39">
    <path d="M 1427.04 383.94 
L 1427.04 27.65625 
" style="fill: none; stroke: #cccccc; stroke-width: 1.25; stroke-linejoin: miter; stroke-linecap: square"/>
   </g>
   <g id="patch_40">
    <path d="M 744.9525 383.94 
L 1427.04 383.94 
" style="fill: none; stroke: #cccccc; stroke-width: 1.25; stroke-linejoin: miter; stroke-linecap: square"/>
   </g>
   <g id="patch_41">
    <path d="M 744.9525 27.65625 
L 1427.04 27.65625 
" style="fill: none; stroke: #cccccc; stroke-width: 1.25; stroke-linejoin: miter; stroke-linecap: square"/>
   </g>
   <g id="text_24">
    <!-- Average by 10 runs -->
    <g style="fill: #808080" transform="translate(1342.335375 23.436487) scale(0.09 -0.09)">
     <use xlink:href="#ArialMT-41"/>
     <use xlink:href="#ArialMT-76" x="64.949219"/>
     <use xlink:href="#ArialMT-65" x="114.949219"/>
     <use xlink:href="#ArialMT-72" x="170.564453"/>
     <use xlink:href="#ArialMT-61" x="203.865234"/>
     <use xlink:href="#ArialMT-67" x="259.480469"/>
     <use xlink:href="#ArialMT-65" x="315.095703"/>
     <use xlink:href="#ArialMT-20" x="370.710938"/>
     <use xlink:href="#ArialMT-62" x="398.494141"/>
     <use xlink:href="#ArialMT-79" x="454.109375"/>
     <use xlink:href="#ArialMT-20" x="504.109375"/>
     <use xlink:href="#ArialMT-31" x="531.892578"/>
     <use xlink:href="#ArialMT-30" x="587.507812"/>
     <use xlink:href="#ArialMT-20" x="643.123047"/>
     <use xlink:href="#ArialMT-72" x="670.90625"/>
     <use xlink:href="#ArialMT-75" x="704.207031"/>
     <use xlink:href="#ArialMT-6e" x="759.822266"/>
     <use xlink:href="#ArialMT-73" x="815.4375"/>
    </g>
   </g>
   <g id="text_25">
    <!-- Average Memory - Batched -->
    <g style="fill: #262626" transform="translate(1013.074687 21.65625) scale(0.12 -0.12)">
     <use xlink:href="#ArialMT-41"/>
     <use xlink:href="#ArialMT-76" x="64.949219"/>
     <use xlink:href="#ArialMT-65" x="114.949219"/>
     <use xlink:href="#ArialMT-72" x="170.564453"/>
     <use xlink:href="#ArialMT-61" x="203.865234"/>
     <use xlink:href="#ArialMT-67" x="259.480469"/>
     <use xlink:href="#ArialMT-65" x="315.095703"/>
     <use xlink:href="#ArialMT-20" x="370.710938"/>
     <use xlink:href="#ArialMT-4d" x="398.494141"/>
     <use xlink:href="#ArialMT-65" x="481.794922"/>
     <use xlink:href="#ArialMT-6d" x="537.410156"/>
     <use xlink:href="#ArialMT-6f" x="620.710938"/>
     <use xlink:href="#ArialMT-72" x="676.326172"/>
     <use xlink:href="#ArialMT-79" x="709.626953"/>
     <use xlink:href="#ArialMT-20" x="759.626953"/>
     <use xlink:href="#ArialMT-2d" x="787.410156"/>
     <use xlink:href="#ArialMT-20" x="820.710938"/>
     <use xlink:href="#ArialMT-42" x="848.494141"/>
     <use xlink:href="#ArialMT-61" x="915.193359"/>
     <use xlink:href="#ArialMT-74" x="970.808594"/>
     <use xlink:href="#ArialMT-63" x="998.591797"/>
     <use xlink:href="#ArialMT-68" x="1048.591797"/>
     <use xlink:href="#ArialMT-65" x="1104.207031"/>
     <use xlink:href="#ArialMT-64" x="1159.822266"/>
    </g>
   </g>
   <g id="legend_2">
    <g id="patch_42">
     <path d="M 752.6525 100.405625 
L 838.610625 100.405625 
Q 840.810625 100.405625 840.810625 98.205625 
L 840.810625 35.35625 
Q 840.810625 33.15625 838.610625 33.15625 
L 752.6525 33.15625 
Q 750.4525 33.15625 750.4525 35.35625 
L 750.4525 98.205625 
Q 750.4525 100.405625 752.6525 100.405625 
z
" style="fill: #ffffff; opacity: 0.8; stroke: #cccccc; stroke-linejoin: miter"/>
    </g>
    <g id="text_26">
     <!-- Library -->
     <g style="fill: #262626" transform="translate(777.293125 46.145625) scale(0.12 -0.12)">
      <use xlink:href="#ArialMT-4c"/>
      <use xlink:href="#ArialMT-69" x="55.615234"/>
      <use xlink:href="#ArialMT-62" x="77.832031"/>
      <use xlink:href="#ArialMT-72" x="133.447266"/>
      <use xlink:href="#ArialMT-61" x="166.748047"/>
      <use xlink:href="#ArialMT-72" x="222.363281"/>
      <use xlink:href="#ArialMT-79" x="255.664062"/>
     </g>
    </g>
    <g id="patch_43">
     <path d="M 754.8525 62.178906 
L 776.8525 62.178906 
L 776.8525 54.478906 
L 754.8525 54.478906 
z
" style="fill: #5875a4; stroke: #ffffff; stroke-linejoin: miter"/>
    </g>
    <g id="text_27">
     <!-- fast-aug -->
     <g style="fill: #262626" transform="translate(785.6525 62.178906) scale(0.11 -0.11)">
      <use xlink:href="#ArialMT-66"/>
      <use xlink:href="#ArialMT-61" x="27.783203"/>
      <use xlink:href="#ArialMT-73" x="83.398438"/>
      <use xlink:href="#ArialMT-74" x="133.398438"/>
      <use xlink:href="#ArialMT-2d" x="161.181641"/>
      <use xlink:href="#ArialMT-61" x="194.482422"/>
      <use xlink:href="#ArialMT-75" x="250.097656"/>
      <use xlink:href="#ArialMT-67" x="305.712891"/>
     </g>
    </g>
    <g id="patch_44">
     <path d="M 754.8525 78.001719 
L 776.8525 78.001719 
L 776.8525 70.301719 
L 754.8525 70.301719 
z
" style="fill: #cc8963; stroke: #ffffff; stroke-linejoin: miter"/>
    </g>
    <g id="text_28">
     <!-- fastnlpaug -->
     <g style="fill: #262626" transform="translate(785.6525 78.001719) scale(0.11 -0.11)">
      <use xlink:href="#ArialMT-66"/>
      <use xlink:href="#ArialMT-61" x="27.783203"/>
      <use xlink:href="#ArialMT-73" x="83.398438"/>
      <use xlink:href="#ArialMT-74" x="133.398438"/>
      <use xlink:href="#ArialMT-6e" x="161.181641"/>
      <use xlink:href="#ArialMT-6c" x="216.796875"/>
      <use xlink:href="#ArialMT-70" x="239.013672"/>
      <use xlink:href="#ArialMT-61" x="294.628906"/>
      <use xlink:href="#ArialMT-75" x="350.244141"/>
      <use xlink:href="#ArialMT-67" x="405.859375"/>
     </g>
    </g>
    <g id="patch_45">
     <path d="M 754.8525 93.690469 
L 776.8525 93.690469 
L 776.8525 85.990469 
L 754.8525 85.990469 
z
" style="fill: #5f9e6e; stroke: #ffffff; stroke-linejoin: miter"/>
    </g>
    <g id="text_29">
     <!-- nlpaug -->
     <g style="fill: #262626" transform="translate(785.6525 93.690469) scale(0.11 -0.11)">
      <use xlink:href="#ArialMT-6e"/>
      <use xlink:href="#ArialMT-6c" x="55.615234"/>
      <use xlink:href="#ArialMT-70" x="77.832031"/>
      <use xlink:href="#ArialMT-61" x="133.447266"/>
      <use xlink:href="#ArialMT-75" x="189.0625"/>
      <use xlink:href="#ArialMT-67" x="244.677734"/>
     </g>
    </g>
   </g>
  </g>
 </g>
 <defs>
  <clipPath id="p3917278c6e">
   <rect x="49.905" y="27.65625" width="682.0875" height="356.28375"/>
  </clipPath>
  <clipPath id="pcf437e8f90">
   <rect x="744.9525" y="27.65625" width="682.0875" height="356.28375"/>
  </clipPath>
 </defs>
</svg>
